<svg width="24" height="24" viewBox="0 0 24 24" fill="none" xmlns="http://www.w3.org/2000/svg">
<g clip-path="url(#clip0_1524_3520)">
<path d="M12 24C18.6274 24 24 18.6274 24 12C24 5.37258 18.6274 0 12 0C5.37258 0 0 5.37258 0 12C0 18.6274 5.37258 24 12 24Z" fill="#A3D4FF"/>
<path d="M17.676 13.0734L17.6756 13.1392L10.0123 5.46289L4.77969 9.30814L6.69819 11.2266L6.49297 11.3615L10.2611 15.1297L9.03247 15.9425L7.54569 14.4558L5.60165 18.2124L11.3767 23.9751C11.5831 23.9857 11.7909 23.991 12 23.991C16.4938 23.991 20.4107 21.5209 22.4669 17.8642L17.676 13.0734Z" fill="#65B1FC"/>
<path d="M24 11.9911C24 11.696 23.9893 11.4034 23.9684 11.1137L16.4752 3.62042L15.7335 6.0485L12.5597 7.53594L22.6156 17.5918C23.4995 15.9199 24 14.0139 24 11.9911Z" fill="#65B1FC"/>
<path d="M11.2838 15.6651C11.2838 14.6026 10.4225 13.7413 9.35999 13.7413C8.65574 13.7413 8.04022 14.1199 7.70497 14.6845C7.36972 14.1199 6.75416 13.7413 6.04996 13.7413C4.98749 13.7413 4.12616 14.6027 4.12616 15.6651C4.12616 17.7325 7.70502 19.7711 7.70502 19.7711C7.70502 19.7711 11.2838 17.7899 11.2838 15.6651Z" fill="#FF6C52"/>
<path d="M11.2838 15.6651C11.2838 14.6026 10.4225 13.7413 9.36 13.7413C8.65645 13.7413 8.04042 14.1208 7.70499 14.6845V19.7712C7.74835 19.7471 11.2838 17.7769 11.2838 15.6651Z" fill="#FF432E"/>
<path d="M16.4752 11.4514C15.1778 9.41305 14.5981 8.8332 12.5597 7.53589C14.5981 6.23849 15.1778 5.65878 16.4752 3.62042C17.7726 5.65878 18.3522 6.23853 20.3906 7.53589C18.3522 8.83325 17.7725 9.413 16.4752 11.4514Z" fill="#FF6C52"/>
<path d="M20.3906 7.53589C18.3528 6.23891 17.7718 5.65742 16.4751 3.62042L16.4751 11.4514C17.7717 9.41441 18.3528 8.83288 20.3906 7.53589Z" fill="#FF432E"/>
<path d="M7.70498 3.71027C7.70498 3.71027 4.10507 5.70316 4.10507 7.84047C4.10507 8.90922 4.97146 9.77561 6.04021 9.77561C6.39932 9.77561 6.73546 9.67773 7.02356 9.50725C7.03795 10.1418 6.89306 10.7932 6.49303 11.3616H8.91688C8.51685 10.7932 8.37192 10.1418 8.38635 9.50725C8.67449 9.67773 9.01063 9.77561 9.36974 9.77561C10.4385 9.77561 11.3049 8.90922 11.3049 7.84047C11.3049 5.76095 7.70498 3.71027 7.70498 3.71027Z" fill="#555A66"/>
<path d="M7.70499 3.71027L7.70602 11.3616H8.91694C8.51691 10.7932 8.37202 10.1419 8.38641 9.5073C8.67455 9.67778 9.01069 9.77566 9.3698 9.77566C10.4385 9.77566 11.3049 8.90927 11.3049 7.84052C11.3049 5.77361 7.74825 3.73497 7.70499 3.71027Z" fill="#333940"/>
<path d="M18.159 14.8363C18.1238 14.8363 18.0888 14.8374 18.0542 14.8396C18.1219 14.657 18.159 14.4595 18.159 14.2534C18.159 13.3234 17.4051 12.5695 16.4752 12.5695C15.5452 12.5695 14.7913 13.3234 14.7913 14.2534C14.7913 14.4081 14.8122 14.558 14.8514 14.7005C14.8315 14.6998 14.8114 14.6994 14.7913 14.6994C13.8614 14.6994 13.1075 15.4532 13.1075 16.3832C13.1075 17.3131 13.8614 18.067 14.7913 18.067C15.1484 18.067 15.4795 17.9558 15.752 17.7662C15.7743 18.4512 15.6232 19.1568 15.1909 19.7711H17.7594C17.3556 19.1972 17.1971 18.5437 17.1962 17.9017C17.4691 18.0922 17.801 18.2039 18.159 18.2039C19.089 18.2039 19.8429 17.4501 19.8429 16.5201C19.8429 15.5902 19.089 14.8363 18.159 14.8363Z" fill="#555A66"/>
<path d="M18.159 14.8364C18.1237 14.8364 18.0888 14.8375 18.0541 14.8397C18.1219 14.6571 18.159 14.4597 18.159 14.2535C18.159 13.3239 17.4057 12.5703 16.4762 12.5697V19.7712H17.7594C17.3556 19.1974 17.1971 18.5439 17.1962 17.9019C17.4691 18.0924 17.801 18.2041 18.159 18.2041C19.089 18.2041 19.8429 17.4503 19.8429 16.5203C19.8428 15.5903 19.0889 14.8364 18.159 14.8364Z" fill="#333940"/>
</g>
<defs>
<clipPath id="clip0_1524_3520">
<rect width="24" height="24" fill="white"/>
</clipPath>
</defs>
</svg>
