<svg width="40" height="40" viewBox="0 0 40 40" fill="none" xmlns="http://www.w3.org/2000/svg">
<g clip-path="url(#clip0_1524_3740)">
<path d="M20 40C31.0457 40 40 31.0457 40 20C40 8.9543 31.0457 0 20 0C8.9543 0 0 8.9543 0 20C0 31.0457 8.9543 40 20 40Z" fill="#7584F2"/>
<path d="M40 20C40 18.7923 39.893 17.6096 39.6878 16.4609L31.1736 6.52246L9.74265 33.4776L17.5371 39.8499C18.3442 39.9489 19.1661 40 20 40C31.0457 40 40 31.0457 40 20Z" fill="#4253CE"/>
<path d="M24.0477 6.52246H31.1737V33.4777H24.0477V6.52246Z" fill="#CDD2E1"/>
<path d="M9.74265 6.52246H27.6102V33.4777H9.74265V6.52246Z" fill="white"/>
<path d="M18.6765 6.52246H27.6103V33.4777H18.6765V6.52246Z" fill="#E9EDF5"/>
<path d="M25.0212 18.0657C25.0212 16.182 23.4942 14.655 21.6105 14.655C20.362 14.655 19.2708 15.3262 18.6764 16.3271C18.082 15.3262 16.9908 14.655 15.7423 14.655C13.8586 14.655 12.3316 16.1821 12.3316 18.0657C12.3316 21.7308 18.6764 25.345 18.6764 25.345C18.6764 25.345 25.0212 21.8326 25.0212 18.0657Z" fill="#FF6C52"/>
<path d="M18.6765 25.345C18.6765 25.345 25.0212 21.8326 25.0212 18.0657C25.0212 16.182 23.4943 14.655 21.6106 14.655C20.3621 14.655 19.2709 15.3262 18.6765 16.3271V25.345Z" fill="#FF583E"/>
<path d="M11.6268 8.45459H14.0193V11.5597H11.6268V8.45459Z" fill="#707789"/>
<path d="M23.4367 28.4404H25.8292V31.5456H23.4367V28.4404Z" fill="#555A66"/>
</g>
<defs>
<clipPath id="clip0_1524_3740">
<rect width="40" height="40" fill="white"/>
</clipPath>
</defs>
</svg>
