<svg width="116" height="35" viewBox="0 0 116 35" fill="none" xmlns="http://www.w3.org/2000/svg">
<path fill-rule="evenodd" clip-rule="evenodd" d="M15.6349 0L16.3928 34.5498C16.3928 34.5498 7.95645 30.5283 3.19066 20.5237C1.30667 16.5763 0 11.6984 0 5.76548C0 5.76548 2.96734 3.2368 9.89271 1.2775C11.7823 0.746937 13.6992 0.320472 15.6349 0V0Z" fill="url(#paint0_radial_62_5398)"/>
<path fill-rule="evenodd" clip-rule="evenodd" d="M28.0942 21.8394C26.5624 24.8611 24.5649 27.6193 22.1761 30.0116C19.0734 33.1216 16.3982 34.557 16.3982 34.557L15.6356 0C26.7614 1.3684 31.5081 5.06453 31.5081 5.06453C31.8122 11.9616 30.2846 17.495 28.0942 21.8394Z" fill="url(#paint1_radial_62_5398)"/>
<path fill-rule="evenodd" clip-rule="evenodd" d="M2.34766 7.45206C2.34766 7.45206 6.25343 4.12435 15.6805 2.53346L16.3291 32.0163C16.3291 32.0163 2.33816 25.3442 2.34766 7.45206Z" fill="url(#paint2_linear_62_5398)"/>
<g style="mix-blend-mode:soft-light" opacity="0.5">
<path fill-rule="evenodd" clip-rule="evenodd" d="M11.9596 3.31333L9.3938 22.2246L3.19066 20.5236C1.30667 16.5763 0 11.6984 0 5.76545C0 5.76545 2.96734 3.23678 9.89271 1.27747L11.9596 3.31333Z" fill="#FBF9FA"/>
</g>
<g style="mix-blend-mode:soft-light" opacity="0.3">
<path fill-rule="evenodd" clip-rule="evenodd" d="M28.0938 21.8394C26.562 24.861 24.5645 27.6192 22.1757 30.0116L20.5745 28.8154L26.5305 20.7437L28.0938 21.8394Z" fill="#FBF9FA"/>
</g>
<path fill-rule="evenodd" clip-rule="evenodd" d="M29.2346 6.85398C29.2346 6.85398 25.1839 3.70091 15.6808 2.53346L16.3294 32.0163C16.3294 32.0163 30.0304 24.7294 29.2346 6.85398Z" fill="url(#paint3_linear_62_5398)"/>
<path fill-rule="evenodd" clip-rule="evenodd" d="M15.7064 3.28699L16.3312 31.6814C16.3312 31.6814 9.29654 28.3321 5.40265 19.9734C4.31357 17.6335 3.57155 15.1453 3.20031 12.5883C2.97072 11.0785 2.85398 9.55354 2.85107 8.02617C2.85107 8.02617 5.30762 5.94007 11.0237 4.33004C12.5653 3.89972 14.1284 3.55156 15.7064 3.28699Z" fill="url(#paint4_linear_62_5398)"/>
<path fill-rule="evenodd" clip-rule="evenodd" d="M28.7775 8.32999C29.0626 24.8992 16.3309 31.6814 16.3309 31.6814L15.7061 3.28699C24.8528 4.41138 28.7514 7.44962 28.7514 7.44962C28.7657 7.74387 28.7728 8.04052 28.7775 8.32999Z" fill="url(#paint5_linear_62_5398)"/>
<g style="mix-blend-mode:soft-light" opacity="0.5">
<path fill-rule="evenodd" clip-rule="evenodd" d="M16.001 14.4161L16.172 24.416L5.39315 19.9734C3.89166 16.7606 2.85107 12.8084 2.85107 8.02621C2.85107 8.02621 5.30049 5.94011 11.0166 4.33009L15.9487 14.3108L16.001 14.4161Z" fill="#FBF9FA"/>
</g>
<g style="mix-blend-mode:soft-light">
<path fill-rule="evenodd" clip-rule="evenodd" d="M0.474609 5.40183C0.474609 5.40183 1.87631 5.47599 2.77673 4.99514C3.03958 4.85233 3.26365 4.6468 3.42933 4.39656C3.595 4.14632 3.69722 3.859 3.72704 3.55975C3.72704 3.55975 1.16358 4.76069 0.474609 5.40183Z" fill="#FBF9FA"/>
</g>
<g style="mix-blend-mode:multiply" opacity="0.5">
<path fill-rule="evenodd" clip-rule="evenodd" d="M28.7683 7.87309C23.6201 4.53103 15.7681 3.82769 15.7681 3.82769C11.4381 4.62887 7.28347 6.19699 3.49728 8.45921C3.12191 9.58121 3.18843 12.452 3.19081 12.586C2.96452 11.0767 2.85095 9.55253 2.85107 8.0262C2.85107 8.0262 5.30762 5.9401 11.0237 4.33008C12.5654 3.90056 14.1284 3.5532 15.7064 3.28942C24.8531 4.41381 28.7517 7.45205 28.7517 7.45205C28.766 7.74391 28.7612 7.58362 28.7683 7.87309Z" fill="#773891"/>
</g>
<path fill-rule="evenodd" clip-rule="evenodd" d="M15.6349 0L16.3928 34.5498C16.3928 34.5498 7.95645 30.5283 3.19066 20.5237C1.30667 16.5763 0 11.6984 0 5.76548C0 5.76548 2.96734 3.2368 9.89271 1.2775C11.7823 0.746937 13.6992 0.320472 15.6349 0V0Z" fill="#61FFD9" style="mix-blend-mode:hue"/>
<path fill-rule="evenodd" clip-rule="evenodd" d="M28.0942 21.8394C26.5624 24.8611 24.5649 27.6193 22.1761 30.0116C19.0734 33.1216 16.3982 34.557 16.3982 34.557L15.6356 0C26.7613 1.3684 31.5081 5.06453 31.5081 5.06453C31.8122 11.9616 30.2846 17.495 28.0942 21.8394Z" fill="#61FFD9" style="mix-blend-mode:hue"/>
<path fill-rule="evenodd" clip-rule="evenodd" d="M15.6349 0L16.3928 34.5498C16.3928 34.5498 7.95645 30.5283 3.19066 20.5237C1.30667 16.5763 0 11.6984 0 5.76548C0 5.76548 2.96734 3.2368 9.89271 1.2775C11.7823 0.746937 13.6992 0.320472 15.6349 0V0Z" fill="#04FFFF" style="mix-blend-mode:soft-light"/>
<path fill-rule="evenodd" clip-rule="evenodd" d="M28.0942 21.8394C26.5624 24.8611 24.5649 27.6193 22.1761 30.0116C19.0734 33.1216 16.3982 34.557 16.3982 34.557L15.6356 0C26.7613 1.3684 31.5081 5.06453 31.5081 5.06453C31.8122 11.9616 30.2846 17.495 28.0942 21.8394Z" fill="#04FFFF" style="mix-blend-mode:soft-light"/>
<path fill-rule="evenodd" clip-rule="evenodd" d="M15.7045 3.28705L16.3294 31.6814C16.3294 31.6814 9.29471 28.3322 5.40082 19.9734C4.31174 17.6335 3.56972 15.1453 3.19848 12.5884C2.96889 11.0786 2.85215 9.5536 2.84924 8.02622C2.84924 8.02622 5.30579 5.94013 11.0219 4.3301C12.5635 3.89978 14.1265 3.55161 15.7045 3.28705Z" fill="white" style="mix-blend-mode:color"/>
<path fill-rule="evenodd" clip-rule="evenodd" d="M28.7757 8.33005C29.0608 24.8992 16.3291 31.6814 16.3291 31.6814L15.7042 3.28705C24.8509 4.41144 28.7496 7.44968 28.7496 7.44968C28.7638 7.74393 28.771 8.04058 28.7757 8.33005Z" fill="white" style="mix-blend-mode:color"/>
<g opacity="0.7">
<path fill-rule="evenodd" clip-rule="evenodd" d="M15.7045 3.28705L16.3294 31.6814C16.3294 31.6814 9.29471 28.3322 5.40082 19.9734C4.31174 17.6335 3.56972 15.1453 3.19848 12.5884C2.96889 11.0786 2.85215 9.5536 2.84924 8.02622C2.84924 8.02622 5.30579 5.94013 11.0219 4.3301C12.5635 3.89978 14.1265 3.55161 15.7045 3.28705Z" fill="white" style="mix-blend-mode:soft-light"/>
<path fill-rule="evenodd" clip-rule="evenodd" d="M28.7757 8.33005C29.0608 24.8992 16.3291 31.6814 16.3291 31.6814L15.7042 3.28705C24.8509 4.41144 28.7496 7.44968 28.7496 7.44968C28.7638 7.74393 28.771 8.04058 28.7757 8.33005Z" fill="white" style="mix-blend-mode:soft-light"/>
</g>
<path fill-rule="evenodd" clip-rule="evenodd" d="M11.922 15.739L12.6371 14.4017L15.9941 16.3897L20.3394 11.5405L21.2208 12.2414L16.0677 19.7342L11.922 15.739Z" fill="url(#paint6_linear_62_5398)"/>
<path d="M43.748 21.5907L45.1387 16.8774H45.5744L45.2223 18.2769L43.7392 23.2851H43.3211L43.748 21.5907ZM42.1329 16.8774L43.3035 21.5467L43.6556 23.2851H43.2199L41.5784 16.8774H42.1329ZM47.4491 21.5467L48.6022 16.8774H49.1567L47.5196 23.2851H47.0839L47.4491 21.5467ZM45.6228 16.8774L46.9958 21.5907L47.4183 23.2851H47.0002L45.548 18.2769L45.1915 16.8774H45.6228Z" fill="white"/>
<path d="M50.6046 16.5253V23.2851H50.0809V16.5253H50.6046ZM50.4857 20.6093L50.2525 20.4773C50.2701 20.1956 50.3273 19.9316 50.4241 19.6851C50.5209 19.4387 50.6515 19.2216 50.8158 19.0338C50.983 18.846 51.1781 18.6993 51.4011 18.5937C51.627 18.4881 51.8764 18.4353 52.1493 18.4353C52.3869 18.4353 52.5996 18.4676 52.7874 18.5321C52.9752 18.5967 53.1351 18.6993 53.2671 18.8402C53.3991 18.981 53.4989 19.1614 53.5664 19.3815C53.6368 19.6015 53.672 19.87 53.672 20.1868V23.2851H53.1439V20.1824C53.1439 19.8538 53.0984 19.5971 53.0074 19.4123C52.9165 19.2245 52.7874 19.091 52.6202 19.0118C52.4529 18.9326 52.2549 18.893 52.026 18.893C51.7737 18.893 51.5522 18.9487 51.3615 19.0602C51.1737 19.1688 51.0153 19.3111 50.8862 19.4871C50.7601 19.6602 50.6632 19.8465 50.5958 20.046C50.5283 20.2426 50.4916 20.4304 50.4857 20.6093Z" fill="white"/>
<path d="M56.867 23.3731C56.556 23.3731 56.27 23.3159 56.0088 23.2014C55.7507 23.087 55.5247 22.9256 55.3311 22.7173C55.1404 22.509 54.9922 22.2626 54.8866 21.978C54.7839 21.6905 54.7326 21.3765 54.7326 21.0362V20.847C54.7326 20.4802 54.7869 20.1487 54.8954 19.8524C55.004 19.556 55.1536 19.3023 55.3443 19.091C55.535 18.8798 55.7521 18.7184 55.9956 18.6069C56.2421 18.4925 56.5003 18.4353 56.7702 18.4353C57.0724 18.4353 57.3408 18.4896 57.5756 18.5981C57.8103 18.7037 58.0068 18.8548 58.1653 19.0514C58.3266 19.245 58.4484 19.4754 58.5305 19.7423C58.6127 20.0064 58.6538 20.2983 58.6538 20.6181V20.9394H55.0494V20.4905H58.1301V20.4289C58.1242 20.1619 58.0699 19.9125 57.9672 19.6807C57.8675 19.446 57.7178 19.2553 57.5183 19.1086C57.3188 18.9619 57.0695 18.8886 56.7702 18.8886C56.5472 18.8886 56.3418 18.9355 56.1541 19.0294C55.9692 19.1233 55.8093 19.2583 55.6744 19.4343C55.5423 19.6074 55.4397 19.8142 55.3663 20.0548C55.2959 20.2925 55.2607 20.5565 55.2607 20.847V21.0362C55.2607 21.3003 55.2988 21.5467 55.3751 21.7756C55.4543 22.0015 55.5658 22.201 55.7096 22.3741C55.8563 22.5472 56.0294 22.6821 56.2289 22.779C56.4284 22.8758 56.6484 22.9242 56.889 22.9242C57.1707 22.9242 57.4201 22.8728 57.6372 22.7701C57.8543 22.6645 58.0494 22.4988 58.2225 22.2729L58.5525 22.5281C58.4499 22.6807 58.3208 22.8215 58.1653 22.9506C58.0127 23.0797 57.8293 23.1824 57.6152 23.2586C57.401 23.3349 57.1516 23.3731 56.867 23.3731Z" fill="white"/>
<path d="M60.2161 19.3111V23.2851H59.6924V18.5233H60.2029L60.2161 19.3111ZM61.9016 18.4881L61.8884 18.9722C61.8297 18.9634 61.7725 18.9561 61.7168 18.9502C61.661 18.9443 61.6009 18.9414 61.5363 18.9414C61.3075 18.9414 61.1065 18.9839 60.9334 19.069C60.7633 19.1512 60.6195 19.2671 60.5021 19.4167C60.3848 19.5634 60.2953 19.7365 60.2337 19.936C60.1721 20.1326 60.1369 20.3438 60.1281 20.5697L59.9344 20.6445C59.9344 20.3335 59.9667 20.0445 60.0312 19.7776C60.0958 19.5106 60.1941 19.2773 60.3261 19.0778C60.4611 18.8754 60.6298 18.7184 60.8322 18.6069C61.0376 18.4925 61.2782 18.4353 61.5539 18.4353C61.6214 18.4353 61.6874 18.4412 61.752 18.4529C61.8195 18.4617 61.8693 18.4734 61.9016 18.4881Z" fill="white"/>
<path d="M64.4805 23.3731C64.1695 23.3731 63.8835 23.3159 63.6224 23.2014C63.3642 23.087 63.1383 22.9256 62.9446 22.7173C62.7539 22.509 62.6058 22.2626 62.5001 21.978C62.3974 21.6905 62.3461 21.3765 62.3461 21.0362V20.847C62.3461 20.4802 62.4004 20.1487 62.5089 19.8524C62.6175 19.556 62.7671 19.3023 62.9578 19.091C63.1485 18.8798 63.3656 18.7184 63.6092 18.6069C63.8556 18.4925 64.1138 18.4353 64.3837 18.4353C64.6859 18.4353 64.9544 18.4896 65.1891 18.5981C65.4238 18.7037 65.6204 18.8548 65.7788 19.0514C65.9401 19.245 66.0619 19.4754 66.1441 19.7423C66.2262 20.0064 66.2673 20.2983 66.2673 20.6181V20.9394H62.663V20.4905H65.7436V20.4289C65.7377 20.1619 65.6834 19.9125 65.5807 19.6807C65.481 19.446 65.3314 19.2553 65.1319 19.1086C64.9323 18.9619 64.683 18.8886 64.3837 18.8886C64.1607 18.8886 63.9554 18.9355 63.7676 19.0294C63.5827 19.1233 63.4228 19.2583 63.2879 19.4343C63.1559 19.6074 63.0532 19.8142 62.9798 20.0548C62.9094 20.2925 62.8742 20.5565 62.8742 20.847V21.0362C62.8742 21.3003 62.9123 21.5467 62.9886 21.7756C63.0678 22.0015 63.1793 22.201 63.3231 22.3741C63.4698 22.5472 63.6429 22.6821 63.8424 22.779C64.0419 22.8758 64.2619 22.9242 64.5025 22.9242C64.7842 22.9242 65.0336 22.8728 65.2507 22.7701C65.4678 22.6645 65.6629 22.4988 65.836 22.2729L66.1661 22.5281C66.0634 22.6807 65.9343 22.8215 65.7788 22.9506C65.6262 23.0797 65.4428 23.1824 65.2287 23.2586C65.0145 23.3349 64.7651 23.3731 64.4805 23.3731Z" fill="white"/>
<path d="M73.6123 22.823V23.2851H70.008V22.823H73.6123ZM70.1709 16.8774V23.2851H69.6295V16.8774H70.1709ZM73.1635 19.7511V20.2132H70.008V19.7511H73.1635ZM73.5903 16.8774V17.3439H70.008V16.8774H73.5903Z" fill="white"/>
<path d="M75.1614 19.5399V23.2851H74.6377V18.5233H75.1394L75.1614 19.5399ZM75.0426 20.6093L74.8094 20.4773C74.827 20.1956 74.8842 19.9316 74.981 19.6851C75.0778 19.4387 75.2084 19.2216 75.3727 19.0338C75.5399 18.846 75.735 18.6993 75.958 18.5937C76.1839 18.4881 76.4333 18.4353 76.7062 18.4353C76.9438 18.4353 77.1565 18.4676 77.3443 18.5321C77.5321 18.5967 77.692 18.6993 77.824 18.8402C77.956 18.981 78.0558 19.1614 78.1232 19.3815C78.1937 19.6015 78.2289 19.87 78.2289 20.1868V23.2851H77.7008V20.1824C77.7008 19.8538 77.6553 19.5971 77.5643 19.4123C77.4734 19.2245 77.3443 19.091 77.177 19.0118C77.0098 18.9326 76.8118 18.893 76.5829 18.893C76.3306 18.893 76.1091 18.9487 75.9184 19.0602C75.7306 19.1688 75.5722 19.3111 75.4431 19.4871C75.3169 19.6602 75.2201 19.8465 75.1526 20.046C75.0852 20.2426 75.0485 20.4304 75.0426 20.6093Z" fill="white"/>
<path d="M79.6327 18.5233H80.1608V23.8528C80.1608 24.1432 80.1124 24.3897 80.0156 24.5921C79.9188 24.7946 79.778 24.9471 79.5931 25.0498C79.4083 25.1554 79.1809 25.2082 78.911 25.2082C78.8376 25.2082 78.7584 25.2009 78.6733 25.1862C78.5883 25.1716 78.5105 25.151 78.4401 25.1246L78.4489 24.6845C78.5017 24.6992 78.5648 24.7124 78.6381 24.7241C78.7086 24.7388 78.7775 24.7461 78.845 24.7461C79.0151 24.7461 79.1589 24.7124 79.2763 24.6449C79.3936 24.5804 79.4816 24.4821 79.5403 24.3501C79.6019 24.218 79.6327 24.0523 79.6327 23.8528V18.5233ZM79.5403 17.1458C79.5403 17.0461 79.5726 16.9625 79.6371 16.895C79.7017 16.8246 79.7897 16.7894 79.9012 16.7894C80.0127 16.7894 80.1007 16.8246 80.1652 16.895C80.2327 16.9625 80.2665 17.0461 80.2665 17.1458C80.2665 17.2426 80.2327 17.3263 80.1652 17.3967C80.1007 17.4642 80.0127 17.4979 79.9012 17.4979C79.7897 17.4979 79.7017 17.4642 79.6371 17.3967C79.5726 17.3263 79.5403 17.2426 79.5403 17.1458Z" fill="white"/>
<path d="M81.3623 20.979V20.8338C81.3623 20.4876 81.4122 20.1678 81.5119 19.8744C81.6117 19.581 81.754 19.3272 81.9388 19.113C82.1266 18.8988 82.351 18.7331 82.6121 18.6157C82.8732 18.4954 83.1637 18.4353 83.4835 18.4353C83.8062 18.4353 84.0982 18.4954 84.3593 18.6157C84.6204 18.7331 84.8448 18.8988 85.0326 19.113C85.2204 19.3272 85.3641 19.581 85.4639 19.8744C85.5637 20.1678 85.6135 20.4876 85.6135 20.8338V20.979C85.6135 21.3252 85.5637 21.645 85.4639 21.9384C85.3641 22.2288 85.2204 22.4812 85.0326 22.6953C84.8478 22.9095 84.6248 23.0767 84.3637 23.197C84.1026 23.3144 83.8121 23.3731 83.4923 23.3731C83.1696 23.3731 82.8777 23.3144 82.6165 23.197C82.3554 23.0767 82.131 22.9095 81.9432 22.6953C81.7554 22.4812 81.6117 22.2288 81.5119 21.9384C81.4122 21.645 81.3623 21.3252 81.3623 20.979ZM81.886 20.8338V20.979C81.886 21.2401 81.9212 21.488 81.9916 21.7227C82.062 21.9545 82.1647 22.1614 82.2997 22.3433C82.4346 22.5222 82.6019 22.6631 82.8014 22.7657C83.0009 22.8684 83.2312 22.9198 83.4923 22.9198C83.7505 22.9198 83.9779 22.8684 84.1744 22.7657C84.3739 22.6631 84.5412 22.5222 84.6761 22.3433C84.8111 22.1614 84.9123 21.9545 84.9798 21.7227C85.0502 21.488 85.0854 21.2401 85.0854 20.979V20.8338C85.0854 20.5756 85.0502 20.3306 84.9798 20.0988C84.9123 19.867 84.8096 19.6602 84.6717 19.4783C84.5368 19.2964 84.3695 19.1526 84.17 19.047C83.9705 18.9414 83.7417 18.8886 83.4835 18.8886C83.2253 18.8886 82.9965 18.9414 82.797 19.047C82.6004 19.1526 82.4332 19.2964 82.2953 19.4783C82.1603 19.6602 82.0576 19.867 81.9872 20.0988C81.9197 20.3306 81.886 20.5756 81.886 20.8338Z" fill="white"/>
<path d="M88.0472 22.8098L89.5303 18.5233H90.098L88.0824 24.0508C88.0413 24.1594 87.9885 24.2796 87.924 24.4117C87.8624 24.5437 87.7802 24.6699 87.6775 24.7902C87.5778 24.9134 87.4516 25.0131 87.2991 25.0894C87.1494 25.1686 86.9661 25.2082 86.749 25.2082C86.6932 25.2082 86.6213 25.2009 86.5333 25.1862C86.4482 25.1745 86.3866 25.1628 86.3485 25.151L86.3441 24.7065C86.3763 24.7153 86.4233 24.7227 86.4849 24.7285C86.5465 24.7344 86.5891 24.7373 86.6125 24.7373C86.8032 24.7373 86.9631 24.7051 87.0922 24.6405C87.2242 24.576 87.3343 24.4792 87.4223 24.3501C87.5103 24.2239 87.5881 24.0655 87.6555 23.8748L88.0472 22.8098ZM86.6609 18.5233L88.1792 22.6117L88.3201 23.1618L87.9372 23.3775L86.0888 18.5233H86.6609Z" fill="white"/>
<path d="M91.4183 19.5091V23.2851H90.8902V18.5233H91.3963L91.4183 19.5091ZM91.3215 20.6093L91.0662 20.4773C91.0838 20.1956 91.1366 19.9316 91.2246 19.6851C91.3156 19.4387 91.4418 19.2216 91.6031 19.0338C91.7645 18.846 91.9581 18.6993 92.184 18.5937C92.4099 18.4881 92.6667 18.4353 92.9542 18.4353C93.186 18.4353 93.3957 18.4676 93.5835 18.5321C93.7742 18.5937 93.9356 18.692 94.0676 18.827C94.2026 18.959 94.3067 19.1321 94.3801 19.3463C94.4534 19.5604 94.4901 19.8172 94.4901 20.1164V23.2851H93.9664V20.134C93.9664 19.8172 93.9165 19.5692 93.8168 19.3903C93.7199 19.2113 93.5835 19.0837 93.4075 19.0074C93.2344 18.9311 93.0334 18.893 92.8046 18.893C92.5346 18.893 92.3058 18.9487 92.118 19.0602C91.9332 19.1688 91.7821 19.3111 91.6647 19.4871C91.5503 19.6602 91.4652 19.8465 91.4095 20.046C91.3537 20.2426 91.3244 20.4304 91.3215 20.6093ZM94.4857 20.1956L94.1336 20.2044C94.1483 19.9727 94.2011 19.7511 94.2921 19.5399C94.3859 19.3287 94.5136 19.1409 94.6749 18.9766C94.8363 18.8094 95.0285 18.6773 95.2514 18.5805C95.4774 18.4837 95.7311 18.4353 96.0128 18.4353C96.2592 18.4353 96.4793 18.469 96.6729 18.5365C96.8666 18.6011 97.0294 18.7052 97.1614 18.849C97.2964 18.9898 97.3991 19.1702 97.4695 19.3903C97.5399 19.6103 97.5751 19.8744 97.5751 20.1824V23.2851H97.047V20.178C97.047 19.8406 96.9971 19.5795 96.8974 19.3947C96.8006 19.2069 96.6656 19.0763 96.4925 19.003C96.3194 18.9297 96.117 18.893 95.8852 18.893C95.6563 18.8959 95.4554 18.9385 95.2822 19.0206C95.1091 19.0998 94.9639 19.2054 94.8466 19.3375C94.7321 19.4666 94.6441 19.6059 94.5825 19.7555C94.5238 19.9052 94.4916 20.0519 94.4857 20.1956Z" fill="white"/>
<path d="M100.753 23.3731C100.442 23.3731 100.155 23.3159 99.8944 23.2014C99.6362 23.087 99.4103 22.9256 99.2166 22.7173C99.0259 22.509 98.8778 22.2626 98.7721 21.978C98.6695 21.6905 98.6181 21.3765 98.6181 21.0362V20.847C98.6181 20.4802 98.6724 20.1487 98.7809 19.8524C98.8895 19.556 99.0391 19.3023 99.2298 19.091C99.4205 18.8798 99.6376 18.7184 99.8812 18.6069C100.128 18.4925 100.386 18.4353 100.656 18.4353C100.958 18.4353 101.226 18.4896 101.461 18.5981C101.696 18.7037 101.892 18.8548 102.051 19.0514C102.212 19.245 102.334 19.4754 102.416 19.7423C102.498 20.0064 102.539 20.2983 102.539 20.6181V20.9394H98.935V20.4905H102.016V20.4289C102.01 20.1619 101.955 19.9125 101.853 19.6807C101.753 19.446 101.603 19.2553 101.404 19.1086C101.204 18.9619 100.955 18.8886 100.656 18.8886C100.433 18.8886 100.227 18.9355 100.04 19.0294C99.8548 19.1233 99.6949 19.2583 99.5599 19.4343C99.4279 19.6074 99.3252 19.8142 99.2518 20.0548C99.1814 20.2925 99.1462 20.5565 99.1462 20.847V21.0362C99.1462 21.3003 99.1844 21.5467 99.2606 21.7756C99.3399 22.0015 99.4513 22.201 99.5951 22.3741C99.7418 22.5472 99.9149 22.6821 100.114 22.779C100.314 22.8758 100.534 22.9242 100.775 22.9242C101.056 22.9242 101.306 22.8728 101.523 22.7701C101.74 22.6645 101.935 22.4988 102.108 22.2729L102.438 22.5281C102.335 22.6807 102.206 22.8215 102.051 22.9506C101.898 23.0797 101.715 23.1824 101.501 23.2586C101.287 23.3349 101.037 23.3731 100.753 23.3731Z" fill="white"/>
<path d="M104.102 19.5399V23.2851H103.578V18.5233H104.08L104.102 19.5399ZM103.983 20.6093L103.75 20.4773C103.767 20.1956 103.824 19.9316 103.921 19.6851C104.018 19.4387 104.149 19.2216 104.313 19.0338C104.48 18.846 104.675 18.6993 104.898 18.5937C105.124 18.4881 105.373 18.4353 105.646 18.4353C105.884 18.4353 106.097 18.4676 106.284 18.5321C106.472 18.5967 106.632 18.6993 106.764 18.8402C106.896 18.981 106.996 19.1614 107.063 19.3815C107.134 19.6015 107.169 19.87 107.169 20.1868V23.2851H106.641V20.1824C106.641 19.8538 106.595 19.5971 106.504 19.4123C106.414 19.2245 106.284 19.091 106.117 19.0118C105.95 18.9326 105.752 18.893 105.523 18.893C105.271 18.893 105.049 18.9487 104.859 19.0602C104.671 19.1688 104.512 19.3111 104.383 19.4871C104.257 19.6602 104.16 19.8465 104.093 20.046C104.025 20.2426 103.989 20.4304 103.983 20.6093Z" fill="white"/>
<path d="M110.333 18.5233V18.9546H107.948V18.5233H110.333ZM108.824 17.2999H109.347V22.1276C109.347 22.3477 109.377 22.5134 109.435 22.6249C109.494 22.7364 109.57 22.8112 109.664 22.8494C109.758 22.8875 109.859 22.9066 109.968 22.9066C110.047 22.9066 110.123 22.9022 110.197 22.8934C110.27 22.8816 110.336 22.8699 110.395 22.8582L110.417 23.3027C110.352 23.3232 110.269 23.3393 110.166 23.3511C110.063 23.3657 109.961 23.3731 109.858 23.3731C109.656 23.3731 109.477 23.3364 109.321 23.263C109.166 23.1868 109.044 23.0577 108.956 22.8758C108.868 22.6909 108.824 22.4401 108.824 22.1232V17.2999Z" fill="white"/>
<path d="M42.2913 26.6415H42.837L45.2047 32.2834L47.5768 26.6415H48.1181L45.4115 33.0491H44.9978L42.2913 26.6415ZM42.1241 26.6415H42.6038L42.661 30.2502V33.0491H42.1241V26.6415ZM47.8144 26.6415H48.2941V33.0491H47.7528V30.2502L47.8144 26.6415Z" fill="white"/>
<path d="M51.6388 33.1371C51.3278 33.1371 51.0417 33.0799 50.7806 32.9655C50.5224 32.8511 50.2965 32.6897 50.1029 32.4814C49.9122 32.2731 49.764 32.0267 49.6584 31.7421C49.5557 31.4545 49.5043 31.1406 49.5043 30.8003V30.611C49.5043 30.2443 49.5586 29.9128 49.6672 29.6164C49.7757 29.3201 49.9254 29.0663 50.1161 28.8551C50.3068 28.6439 50.5239 28.4825 50.7674 28.371C51.0138 28.2566 51.272 28.1994 51.542 28.1994C51.8441 28.1994 52.1126 28.2536 52.3473 28.3622C52.582 28.4678 52.7786 28.6189 52.937 28.8155C53.0984 29.0091 53.2202 29.2394 53.3023 29.5064C53.3845 29.7705 53.4255 30.0624 53.4255 30.3822V30.7035H49.8212V30.2546H52.9018V30.193C52.896 29.926 52.8417 29.6766 52.739 29.4448C52.6392 29.2101 52.4896 29.0194 52.2901 28.8727C52.0906 28.726 51.8412 28.6527 51.542 28.6527C51.319 28.6527 51.1136 28.6996 50.9258 28.7935C50.741 28.8874 50.5811 29.0223 50.4461 29.1984C50.3141 29.3715 50.2114 29.5783 50.1381 29.8189C50.0677 30.0565 50.0325 30.3206 50.0325 30.611V30.8003C50.0325 31.0643 50.0706 31.3108 50.1469 31.5396C50.2261 31.7655 50.3376 31.965 50.4813 32.1381C50.628 32.3112 50.8011 32.4462 51.0006 32.543C51.2001 32.6398 51.4202 32.6883 51.6608 32.6883C51.9424 32.6883 52.1918 32.6369 52.4089 32.5342C52.626 32.4286 52.8211 32.2628 52.9942 32.0369L53.3243 32.2922C53.2216 32.4447 53.0925 32.5856 52.937 32.7147C52.7845 32.8438 52.6011 32.9464 52.3869 33.0227C52.1727 33.099 51.9234 33.1371 51.6388 33.1371Z" fill="white"/>
<path d="M56.3037 33.1371C55.9927 33.1371 55.7066 33.0799 55.4455 32.9655C55.1873 32.8511 54.9614 32.6897 54.7678 32.4814C54.5771 32.2731 54.4289 32.0267 54.3233 31.7421C54.2206 31.4545 54.1693 31.1406 54.1693 30.8003V30.611C54.1693 30.2443 54.2236 29.9128 54.3321 29.6164C54.4407 29.3201 54.5903 29.0663 54.781 28.8551C54.9717 28.6439 55.1888 28.4825 55.4323 28.371C55.6788 28.2566 55.937 28.1994 56.2069 28.1994C56.5091 28.1994 56.7775 28.2536 57.0122 28.3622C57.247 28.4678 57.4435 28.6189 57.602 28.8155C57.7633 29.0091 57.8851 29.2394 57.9672 29.5064C58.0494 29.7705 58.0905 30.0624 58.0905 30.3822V30.7035H54.4861V30.2546H57.5667V30.193C57.5609 29.926 57.5066 29.6766 57.4039 29.4448C57.3042 29.2101 57.1545 29.0194 56.955 28.8727C56.7555 28.726 56.5061 28.6527 56.2069 28.6527C55.9839 28.6527 55.7785 28.6996 55.5908 28.7935C55.4059 28.8874 55.246 29.0223 55.1111 29.1984C54.979 29.3715 54.8763 29.5783 54.803 29.8189C54.7326 30.0565 54.6974 30.3206 54.6974 30.611V30.8003C54.6974 31.0643 54.7355 31.3108 54.8118 31.5396C54.891 31.7655 55.0025 31.965 55.1463 32.1381C55.293 32.3112 55.4661 32.4462 55.6656 32.543C55.8651 32.6398 56.0851 32.6883 56.3257 32.6883C56.6074 32.6883 56.8567 32.6369 57.0739 32.5342C57.291 32.4286 57.4861 32.2628 57.6592 32.0369L57.9892 32.2922C57.8865 32.4447 57.7575 32.5856 57.602 32.7147C57.4494 32.8438 57.266 32.9464 57.0518 33.0227C56.8377 33.099 56.5883 33.1371 56.3037 33.1371Z" fill="white"/>
<path d="M60.929 28.2874V28.7187H58.5437V28.2874H60.929ZM59.4195 27.0639H59.9432V31.8917C59.9432 32.1117 59.9726 32.2775 60.0312 32.389C60.0899 32.5005 60.1662 32.5753 60.2601 32.6134C60.354 32.6516 60.4552 32.6707 60.5637 32.6707C60.643 32.6707 60.7192 32.6663 60.7926 32.6574C60.8659 32.6457 60.932 32.634 60.9906 32.6222L61.0126 33.0667C60.9481 33.0873 60.8645 33.1034 60.7618 33.1151C60.6591 33.1298 60.5564 33.1371 60.4537 33.1371C60.2513 33.1371 60.0723 33.1005 59.9168 33.0271C59.7613 32.9508 59.6396 32.8217 59.5515 32.6398C59.4635 32.455 59.4195 32.2042 59.4195 31.8873V27.0639Z" fill="white"/>
<path d="M64.8854 31.8345C64.8854 31.7054 64.8531 31.5778 64.7886 31.4516C64.724 31.3254 64.5993 31.2096 64.4145 31.1039C64.2326 30.9983 63.9642 30.9088 63.6092 30.8355C63.3451 30.7768 63.1089 30.7108 62.9006 30.6374C62.6952 30.5641 62.5221 30.4761 62.3813 30.3734C62.2405 30.2707 62.1334 30.1475 62.06 30.0037C61.9867 29.86 61.95 29.6898 61.95 29.4932C61.95 29.3172 61.9882 29.1514 62.0644 28.9959C62.1437 28.8375 62.2551 28.6996 62.3989 28.5822C62.5456 28.4619 62.7216 28.3681 62.927 28.3006C63.1353 28.2331 63.3686 28.1994 63.6268 28.1994C63.9935 28.1994 64.3074 28.2624 64.5685 28.3886C64.8326 28.5118 65.0336 28.6805 65.1715 28.8947C65.3123 29.1089 65.3827 29.3509 65.3827 29.6208H64.859C64.859 29.4565 64.8106 29.301 64.7138 29.1544C64.6199 29.0077 64.4805 28.8874 64.2957 28.7935C64.1138 28.6996 63.8908 28.6527 63.6268 28.6527C63.3539 28.6527 63.1324 28.6937 62.9622 28.7759C62.7921 28.858 62.6674 28.9622 62.5881 29.0883C62.5119 29.2145 62.4737 29.3451 62.4737 29.48C62.4737 29.5856 62.4899 29.6825 62.5221 29.7705C62.5573 29.8556 62.619 29.9348 62.707 30.0081C62.7979 30.0815 62.927 30.1504 63.0942 30.215C63.2615 30.2795 63.4786 30.3426 63.7456 30.4042C64.1299 30.4893 64.4438 30.5934 64.6874 30.7167C64.9338 30.837 65.1157 30.9866 65.2331 31.1656C65.3504 31.3416 65.4091 31.5558 65.4091 31.8081C65.4091 32.0047 65.368 32.1851 65.2859 32.3494C65.2037 32.5108 65.0849 32.6501 64.9294 32.7675C64.7768 32.8848 64.592 32.9758 64.3749 33.0403C64.1607 33.1049 63.9201 33.1371 63.6532 33.1371C63.2512 33.1371 62.9109 33.0711 62.6322 32.9391C62.3564 32.8041 62.1466 32.6281 62.0028 32.411C61.862 32.191 61.7916 31.9577 61.7916 31.7113H62.3153C62.3329 31.9577 62.4106 32.1528 62.5485 32.2966C62.6864 32.4374 62.8551 32.5372 63.0546 32.5958C63.2571 32.6545 63.4566 32.6839 63.6532 32.6839C63.9231 32.6839 64.149 32.6442 64.3309 32.565C64.5128 32.4858 64.6507 32.3817 64.7446 32.2526C64.8385 32.1235 64.8854 31.9841 64.8854 31.8345Z" fill="white"/>
<path d="M72.5517 31.4736C72.5517 31.2976 72.5224 31.1406 72.4637 31.0027C72.405 30.8648 72.3082 30.7416 72.1733 30.633C72.0412 30.5216 71.8623 30.4189 71.6363 30.325C71.4134 30.2282 71.1346 30.1328 70.8002 30.0389C70.4804 29.948 70.1914 29.8482 69.9332 29.7397C69.675 29.6311 69.4535 29.5064 69.2687 29.3656C69.0868 29.2248 68.9474 29.0605 68.8506 28.8727C68.7538 28.682 68.7054 28.4605 68.7054 28.2082C68.7054 27.9617 68.7582 27.7373 68.8638 27.5348C68.9694 27.3324 69.1176 27.1578 69.3083 27.0111C69.5019 26.8644 69.7293 26.7515 69.9904 26.6723C70.2545 26.593 70.5435 26.5534 70.8574 26.5534C71.3063 26.5534 71.6936 26.6385 72.0192 26.8087C72.3478 26.9789 72.6016 27.2092 72.7806 27.4996C72.9625 27.7871 73.0534 28.1099 73.0534 28.4678H72.5121C72.5121 28.1891 72.4461 27.9412 72.3141 27.7241C72.185 27.504 71.9972 27.3324 71.7508 27.2092C71.5073 27.083 71.2095 27.0199 70.8574 27.0199C70.5053 27.0199 70.209 27.0742 69.9684 27.1828C69.7308 27.2884 69.5503 27.4307 69.4271 27.6096C69.3068 27.7857 69.2467 27.9823 69.2467 28.1994C69.2467 28.3519 69.276 28.4928 69.3347 28.6218C69.3934 28.748 69.4887 28.8668 69.6207 28.9783C69.7557 29.0869 69.9332 29.1896 70.1533 29.2864C70.3733 29.3803 70.6447 29.4697 70.9674 29.5548C71.3077 29.6487 71.6099 29.7529 71.874 29.8673C72.138 29.9817 72.361 30.1137 72.5429 30.2634C72.7248 30.4101 72.8627 30.5817 72.9566 30.7783C73.0505 30.9748 73.0974 31.2037 73.0974 31.4648C73.0974 31.7259 73.0417 31.9606 72.9302 32.169C72.8216 32.3743 72.6676 32.5489 72.4681 32.6927C72.2715 32.8364 72.0383 32.9464 71.7684 33.0227C71.5014 33.099 71.2095 33.1371 70.8926 33.1371C70.608 33.1371 70.3249 33.1005 70.0432 33.0271C69.7616 32.9538 69.5034 32.8408 69.2687 32.6883C69.0369 32.5328 68.8506 32.3333 68.7098 32.0897C68.5719 31.8462 68.5029 31.5558 68.5029 31.2184H69.0398C69.0398 31.4883 69.0941 31.7157 69.2027 31.9005C69.3112 32.0853 69.455 32.235 69.6339 32.3494C69.8159 32.4638 70.0154 32.5474 70.2325 32.6002C70.4525 32.6501 70.6726 32.6751 70.8926 32.6751C71.23 32.6751 71.5219 32.6252 71.7684 32.5254C72.0178 32.4257 72.2099 32.2863 72.3449 32.1073C72.4828 31.9254 72.5517 31.7142 72.5517 31.4736Z" fill="white"/>
<path d="M75.9844 33.1371C75.6734 33.1371 75.3874 33.0799 75.1262 32.9655C74.8681 32.8511 74.6421 32.6897 74.4485 32.4814C74.2578 32.2731 74.1096 32.0267 74.004 31.7421C73.9013 31.4545 73.85 31.1406 73.85 30.8003V30.611C73.85 30.2443 73.9043 29.9128 74.0128 29.6164C74.1214 29.3201 74.271 29.0663 74.4617 28.8551C74.6524 28.6439 74.8695 28.4825 75.113 28.371C75.3595 28.2566 75.6177 28.1994 75.8876 28.1994C76.1898 28.1994 76.4582 28.2536 76.693 28.3622C76.9277 28.4678 77.1242 28.6189 77.2827 28.8155C77.444 29.0091 77.5658 29.2394 77.6479 29.5064C77.7301 29.7705 77.7712 30.0624 77.7712 30.3822V30.7035H74.1669V30.2546H77.2475V30.193C77.2416 29.926 77.1873 29.6766 77.0846 29.4448C76.9849 29.2101 76.8352 29.0194 76.6357 28.8727C76.4362 28.726 76.1869 28.6527 75.8876 28.6527C75.6646 28.6527 75.4592 28.6996 75.2715 28.7935C75.0866 28.8874 74.9267 29.0223 74.7918 29.1984C74.6597 29.3715 74.5571 29.5783 74.4837 29.8189C74.4133 30.0565 74.3781 30.3206 74.3781 30.611V30.8003C74.3781 31.0643 74.4162 31.3108 74.4925 31.5396C74.5717 31.7655 74.6832 31.965 74.827 32.1381C74.9737 32.3112 75.1468 32.4462 75.3463 32.543C75.5458 32.6398 75.7658 32.6883 76.0064 32.6883C76.2881 32.6883 76.5375 32.6369 76.7546 32.5342C76.9717 32.4286 77.1668 32.2628 77.3399 32.0369L77.6699 32.2922C77.5673 32.4447 77.4382 32.5856 77.2827 32.7147C77.1301 32.8438 76.9467 32.9464 76.7326 33.0227C76.5184 33.099 76.269 33.1371 75.9844 33.1371Z" fill="white"/>
<path d="M80.5657 32.6839C80.7887 32.6839 80.997 32.6428 81.1906 32.5606C81.3872 32.4755 81.5486 32.3509 81.6747 32.1866C81.8038 32.0193 81.8772 31.8154 81.8948 31.5748H82.3965C82.3818 31.877 82.2894 32.1469 82.1192 32.3846C81.952 32.6193 81.732 32.8041 81.4591 32.9391C81.1892 33.0711 80.8914 33.1371 80.5657 33.1371C80.2342 33.1371 79.9408 33.077 79.6855 32.9567C79.4332 32.8364 79.222 32.6692 79.0518 32.455C78.8817 32.2379 78.7526 31.9856 78.6645 31.6981C78.5795 31.4076 78.5369 31.0951 78.5369 30.7607V30.5758C78.5369 30.2414 78.5795 29.9304 78.6645 29.6428C78.7526 29.3524 78.8817 29.1001 79.0518 28.8859C79.222 28.6688 79.4332 28.5001 79.6855 28.3798C79.9379 28.2595 80.2298 28.1994 80.5613 28.1994C80.9017 28.1994 81.2068 28.2683 81.4767 28.4062C81.7496 28.5441 81.9667 28.7392 82.128 28.9915C82.2923 29.2438 82.3818 29.5431 82.3965 29.8893H81.8948C81.8801 29.634 81.8126 29.414 81.6923 29.2292C81.5721 29.0443 81.4136 28.902 81.2171 28.8023C81.0205 28.7025 80.8019 28.6527 80.5613 28.6527C80.2914 28.6527 80.0611 28.7055 79.8704 28.8111C79.6797 28.9138 79.5242 29.0561 79.4039 29.238C79.2865 29.4169 79.2 29.6223 79.1442 29.8541C79.0885 30.0829 79.0606 30.3235 79.0606 30.5758V30.7607C79.0606 31.0159 79.087 31.2594 79.1398 31.4912C79.1956 31.7201 79.2821 31.924 79.3995 32.1029C79.5198 32.2819 79.6753 32.4242 79.866 32.5298C80.0596 32.6325 80.2929 32.6839 80.5657 32.6839Z" fill="white"/>
<path d="M86.5069 31.9489V28.2874H87.035V33.0491H86.5289L86.5069 31.9489ZM86.6037 31.0687L86.8766 31.0599C86.8766 31.3592 86.8414 31.635 86.771 31.8873C86.7005 32.1396 86.5905 32.3597 86.4409 32.5474C86.2913 32.7352 86.0976 32.8804 85.86 32.9831C85.6223 33.0858 85.3363 33.1371 85.0018 33.1371C84.77 33.1371 84.5573 33.1049 84.3637 33.0403C84.173 32.9728 84.0087 32.8672 83.8708 32.7235C83.7329 32.5797 83.6258 32.3934 83.5495 32.1646C83.4762 31.9357 83.4395 31.6585 83.4395 31.3328V28.2874H83.9632V31.3416C83.9632 31.5968 83.9911 31.8095 84.0468 31.9797C84.1055 32.1499 84.1847 32.2863 84.2845 32.389C84.3871 32.4917 84.5045 32.565 84.6365 32.609C84.7686 32.653 84.9109 32.6751 85.0634 32.6751C85.4507 32.6751 85.7558 32.6002 85.9788 32.4506C86.2047 32.301 86.3646 32.1044 86.4585 31.8609C86.5553 31.6144 86.6037 31.3504 86.6037 31.0687Z" fill="white"/>
<path d="M88.9362 29.0751V33.0491H88.4125V28.2874H88.923L88.9362 29.0751ZM90.6217 28.2522L90.6085 28.7363C90.5498 28.7275 90.4926 28.7201 90.4369 28.7143C90.3811 28.7084 90.321 28.7055 90.2565 28.7055C90.0276 28.7055 89.8266 28.748 89.6535 28.8331C89.4834 28.9152 89.3396 29.0311 89.2222 29.1808C89.1049 29.3275 89.0154 29.5006 88.9538 29.7001C88.8922 29.8966 88.857 30.1079 88.8482 30.3338L88.6545 30.4086C88.6545 30.0976 88.6868 29.8086 88.7514 29.5416C88.8159 29.2746 88.9142 29.0414 89.0462 28.8419C89.1812 28.6394 89.3499 28.4825 89.5523 28.371C89.7577 28.2566 89.9983 28.1994 90.2741 28.1994C90.3415 28.1994 90.4075 28.2052 90.4721 28.217C90.5396 28.2258 90.5895 28.2375 90.6217 28.2522Z" fill="white"/>
<path d="M92.0344 28.2874V33.0491H91.5107V28.2874H92.0344ZM91.4183 26.9099C91.4183 26.8102 91.4491 26.7265 91.5107 26.6591C91.5752 26.5886 91.6633 26.5534 91.7748 26.5534C91.8862 26.5534 91.9743 26.5886 92.0388 26.6591C92.1063 26.7265 92.14 26.8102 92.14 26.9099C92.14 27.0067 92.1063 27.0903 92.0388 27.1608C91.9743 27.2282 91.8862 27.262 91.7748 27.262C91.6633 27.262 91.5752 27.2282 91.5107 27.1608C91.4491 27.0903 91.4183 27.0067 91.4183 26.9099Z" fill="white"/>
<path d="M95.2734 28.2874V28.7187H92.8882V28.2874H95.2734ZM93.764 27.0639H94.2877V31.8917C94.2877 32.1117 94.317 32.2775 94.3757 32.389C94.4343 32.5005 94.5106 32.5753 94.6045 32.6134C94.6984 32.6516 94.7996 32.6707 94.9082 32.6707C94.9874 32.6707 95.0637 32.6663 95.137 32.6574C95.2104 32.6457 95.2764 32.634 95.3351 32.6222L95.3571 33.0667C95.2925 33.0873 95.2089 33.1034 95.1062 33.1151C95.0035 33.1298 94.9008 33.1371 94.7982 33.1371C94.5957 33.1371 94.4167 33.1005 94.2612 33.0271C94.1058 32.9508 93.984 32.8217 93.896 32.6398C93.808 32.455 93.764 32.2042 93.764 31.8873V27.0639Z" fill="white"/>
<path d="M97.7907 32.5738L99.2738 28.2874H99.8416L97.826 33.8149C97.7849 33.9234 97.7321 34.0437 97.6675 34.1758C97.6059 34.3078 97.5238 34.4339 97.4211 34.5542C97.3213 34.6775 97.1952 34.7772 97.0426 34.8535C96.893 34.9327 96.7096 34.9723 96.4925 34.9723C96.4367 34.9723 96.3649 34.965 96.2768 34.9503C96.1918 34.9386 96.1302 34.9268 96.092 34.9151L96.0876 34.4706C96.1199 34.4794 96.1668 34.4867 96.2284 34.4926C96.2901 34.4985 96.3326 34.5014 96.3561 34.5014C96.5468 34.5014 96.7067 34.4691 96.8358 34.4046C96.9678 34.34 97.0778 34.2432 97.1658 34.1141C97.2538 33.988 97.3316 33.8295 97.3991 33.6388L97.7907 32.5738ZM96.4045 28.2874L97.9228 32.3758L98.0636 32.9259L97.6807 33.1415L95.8324 28.2874H96.4045Z" fill="white"/>
<path d="M47.8158 8.6699C47.8158 8.50365 47.7914 8.35451 47.7425 8.22248C47.6936 8.08556 47.6031 7.95843 47.4711 7.84107C47.339 7.72371 47.1483 7.60636 46.899 7.489C46.6545 7.36675 46.3317 7.23962 45.9308 7.10759C45.4613 6.95112 45.009 6.77508 44.5738 6.57949C44.1386 6.379 43.7499 6.14673 43.4076 5.88268C43.0653 5.61374 42.7939 5.30079 42.5934 4.94383C42.3929 4.58198 42.2927 4.16145 42.2927 3.68224C42.2927 3.2226 42.3954 2.8094 42.6008 2.44266C42.8061 2.07103 43.0922 1.75564 43.4589 1.49647C43.8306 1.23242 44.2658 1.03194 44.7645 0.895021C45.2633 0.753215 45.8085 0.682312 46.4002 0.682312C47.1826 0.682312 47.872 0.819228 48.4686 1.09306C49.07 1.362 49.5395 1.74586 49.8769 2.24462C50.2192 2.7385 50.3903 3.32284 50.3903 3.99764H47.8305C47.8305 3.7287 47.7742 3.49154 47.6618 3.28616C47.5542 3.08079 47.3904 2.91942 47.1703 2.80207C46.9503 2.68471 46.674 2.62603 46.3415 2.62603C46.0188 2.62603 45.7474 2.67493 45.5273 2.77273C45.3073 2.87053 45.141 3.00255 45.0286 3.16881C44.9161 3.33017 44.8599 3.50865 44.8599 3.70425C44.8599 3.86561 44.9039 4.01231 44.9919 4.14433C45.0848 4.27147 45.2144 4.39127 45.3806 4.50374C45.5518 4.61621 45.7572 4.72378 45.9968 4.82647C46.2413 4.92916 46.5151 5.0294 46.8183 5.1272C47.3855 5.30812 47.8891 5.51105 48.3292 5.73598C48.7742 5.95603 49.1483 6.20786 49.4515 6.49147C49.7595 6.77019 49.9918 7.08803 50.1483 7.44499C50.3096 7.80195 50.3903 8.20536 50.3903 8.65523C50.3903 9.13444 50.2974 9.55986 50.1116 9.93149C49.9258 10.3031 49.6593 10.6185 49.3121 10.8777C48.9649 11.1319 48.5493 11.3251 48.0652 11.4571C47.5811 11.5891 47.0408 11.6552 46.4442 11.6552C45.8965 11.6552 45.3562 11.5867 44.8232 11.4498C44.2951 11.308 43.8159 11.0928 43.3856 10.8043C42.9553 10.5109 42.6105 10.1369 42.3514 9.6821C42.0971 9.22246 41.97 8.67724 41.97 8.04644H44.5518C44.5518 8.3594 44.5934 8.62345 44.6765 8.8386C44.7596 9.05376 44.8819 9.22735 45.0432 9.35937C45.2046 9.48651 45.4027 9.57942 45.6374 9.63809C45.8721 9.69188 46.141 9.71878 46.4442 9.71878C46.7718 9.71878 47.0359 9.67232 47.2364 9.57942C47.4368 9.48162 47.5835 9.35448 47.6764 9.19801C47.7693 9.03664 47.8158 8.86061 47.8158 8.6699Z" fill="white"/>
<path d="M55.7227 9.5134V6.24208C55.7227 6.01715 55.6909 5.824 55.6274 5.66264C55.5638 5.50127 55.4635 5.37658 55.3266 5.28856C55.1897 5.19565 55.0063 5.1492 54.7765 5.1492C54.5907 5.1492 54.4318 5.18098 54.2998 5.24455C54.1677 5.30812 54.0675 5.40347 53.999 5.53061C53.9306 5.65775 53.8963 5.81911 53.8963 6.01471H51.4245C51.4245 5.64797 51.5052 5.30812 51.6666 4.99517C51.8328 4.67733 52.0675 4.40105 52.3707 4.16634C52.6788 3.93163 53.0455 3.7507 53.4709 3.62356C53.9012 3.49154 54.3804 3.42552 54.9085 3.42552C55.5393 3.42552 56.1017 3.53066 56.5955 3.74092C57.0943 3.95118 57.4879 4.26658 57.7764 4.68711C58.0649 5.10275 58.2092 5.62596 58.2092 6.25675V9.50607C58.2092 10.0244 58.2385 10.418 58.2972 10.687C58.3559 10.951 58.439 11.1833 58.5466 11.3838V11.5085H56.0674C55.9501 11.264 55.8621 10.9657 55.8034 10.6136C55.7496 10.2567 55.7227 9.88992 55.7227 9.5134ZM56.0234 6.66017L56.0381 7.98043H54.9452C54.7154 7.98043 54.5198 8.01222 54.3584 8.07578C54.202 8.13935 54.0748 8.22737 53.977 8.33984C53.8841 8.44741 53.8157 8.56966 53.7717 8.70658C53.7325 8.84349 53.713 8.98774 53.713 9.13933C53.713 9.28602 53.7472 9.41805 53.8157 9.53541C53.889 9.64787 53.9868 9.73589 54.1091 9.79946C54.2313 9.86303 54.3682 9.89481 54.5198 9.89481C54.7936 9.89481 55.0259 9.84347 55.2166 9.74078C55.4122 9.6332 55.5613 9.50362 55.664 9.35204C55.7667 9.20045 55.8181 9.05865 55.8181 8.92662L56.3608 9.93882C56.263 10.1344 56.1506 10.3325 56.0234 10.5329C55.9012 10.7334 55.7472 10.9192 55.5613 11.0904C55.3804 11.2566 55.1579 11.3936 54.8939 11.5011C54.6298 11.6038 54.3095 11.6552 53.933 11.6552C53.444 11.6552 52.9942 11.5549 52.5834 11.3544C52.1776 11.154 51.8524 10.8752 51.6079 10.5183C51.3634 10.1564 51.2411 9.74078 51.2411 9.27135C51.2411 8.86061 51.3145 8.49387 51.4612 8.17114C51.6128 7.8484 51.8402 7.57457 52.1433 7.34964C52.4465 7.12471 52.8328 6.95356 53.3022 6.8362C53.7717 6.71885 54.3242 6.66017 54.9599 6.66017H56.0234Z" fill="white"/>
<path d="M62.6101 11.5085H60.1236V2.92676C60.1236 2.31064 60.2483 1.79231 60.4977 1.37178C60.747 0.951255 61.0991 0.633413 61.5539 0.41826C62.0086 0.198216 62.5465 0.0881939 63.1675 0.0881939C63.3827 0.0881939 63.5856 0.102863 63.7763 0.132203C63.967 0.161542 64.1528 0.198216 64.3337 0.242225L64.3411 2.06125C64.2531 2.0368 64.1626 2.01969 64.0697 2.00991C63.9768 2.00013 63.8619 1.99524 63.725 1.99524C63.4854 1.99524 63.2824 2.03191 63.1162 2.10526C62.9499 2.17372 62.8228 2.27885 62.7348 2.42066C62.6516 2.55757 62.6101 2.72627 62.6101 2.92676V11.5085ZM64.1504 3.57222V5.28856H58.9794V3.57222H64.1504Z" fill="white"/>
<path d="M68.7053 11.6552C68.0598 11.6552 67.4828 11.5549 66.9743 11.3544C66.4657 11.1491 66.0354 10.8679 65.6834 10.5109C65.3362 10.154 65.0697 9.74323 64.8839 9.27869C64.7029 8.81415 64.6125 8.32272 64.6125 7.8044V7.52567C64.6125 6.94378 64.6932 6.4059 64.8545 5.91202C65.0159 5.41325 65.2555 4.97806 65.5733 4.60643C65.8912 4.2348 66.2897 3.94629 66.7689 3.74092C67.2481 3.53066 67.8056 3.42552 68.4412 3.42552C69.0036 3.42552 69.5072 3.51599 69.9522 3.69691C70.3972 3.87784 70.7737 4.137 71.0818 4.4744C71.3947 4.8118 71.6319 5.2201 71.7932 5.69931C71.9595 6.17852 72.0426 6.7164 72.0426 7.31296V8.31783H65.5587V6.77019H69.6295V6.57949C69.6344 6.31543 69.5879 6.0905 69.4901 5.90468C69.3972 5.71887 69.2603 5.57706 69.0794 5.47927C68.8984 5.38147 68.6784 5.33257 68.4192 5.33257C68.1503 5.33257 67.9278 5.39125 67.7518 5.50861C67.5806 5.62596 67.4461 5.78733 67.3484 5.9927C67.2554 6.19319 67.1894 6.42545 67.1503 6.68951C67.1112 6.95356 67.0916 7.23228 67.0916 7.52567V7.8044C67.0916 8.09779 67.1308 8.36429 67.209 8.60389C67.2921 8.84349 67.4095 9.04887 67.5611 9.22001C67.7175 9.38627 67.9033 9.51585 68.1185 9.60876C68.3385 9.70166 68.5879 9.74812 68.8667 9.74812C69.2041 9.74812 69.5366 9.68455 69.8642 9.55741C70.1918 9.43027 70.473 9.22001 70.7077 8.92662L71.8299 10.2616C71.6685 10.4914 71.4387 10.7139 71.1404 10.929C70.847 11.1442 70.495 11.3202 70.0842 11.4571C69.6735 11.5891 69.2138 11.6552 68.7053 11.6552Z" fill="white"/>
<path d="M76.5608 10.5403C76.8836 10.5403 77.1819 10.4743 77.4557 10.3422C77.7295 10.2102 77.9545 10.0293 78.1305 9.79946C78.3065 9.56475 78.4068 9.29825 78.4312 8.99997H79.7221C79.6977 9.46939 79.5388 9.90704 79.2454 10.3129C78.9569 10.7139 78.5779 11.039 78.1085 11.2884C77.6391 11.5329 77.1232 11.6552 76.5608 11.6552C75.9643 11.6552 75.4435 11.55 74.9985 11.3398C74.5584 11.1295 74.1917 10.841 73.8983 10.4743C73.6098 10.1075 73.3922 9.68699 73.2455 9.21268C73.1037 8.73347 73.0328 8.22737 73.0328 7.69437V7.38631C73.0328 6.85332 73.1037 6.34966 73.2455 5.87535C73.3922 5.39614 73.6098 4.97317 73.8983 4.60643C74.1917 4.23969 74.5584 3.95118 74.9985 3.74092C75.4435 3.53066 75.9643 3.42552 76.5608 3.42552C77.1819 3.42552 77.7246 3.55266 78.1892 3.80693C78.6537 4.05632 79.018 4.39861 79.2821 4.8338C79.551 5.26411 79.6977 5.7531 79.7221 6.30076H78.4312C78.4068 5.97314 78.3139 5.67731 78.1525 5.41325C77.996 5.1492 77.7809 4.93894 77.507 4.78246C77.2381 4.6211 76.9227 4.54041 76.5608 4.54041C76.1452 4.54041 75.7956 4.62354 75.512 4.7898C75.2332 4.95116 75.0108 5.17121 74.8445 5.44993C74.6831 5.72376 74.5658 6.02938 74.4924 6.36678C74.424 6.69929 74.3898 7.03913 74.3898 7.38631V7.69437C74.3898 8.04155 74.424 8.38384 74.4924 8.72124C74.5609 9.05865 74.6758 9.36426 74.8372 9.63809C75.0034 9.91193 75.2259 10.132 75.5046 10.2982C75.7882 10.4596 76.1403 10.5403 76.5608 10.5403Z" fill="white"/>
<path d="M85.9274 10.1515V6.06605C85.9274 5.7531 85.8638 5.48171 85.7367 5.25189C85.6144 5.01717 85.4286 4.83625 85.1792 4.70911C84.9298 4.58198 84.6218 4.51841 84.255 4.51841C83.9128 4.51841 83.612 4.57709 83.3529 4.69444C83.0986 4.8118 82.8981 4.96583 82.7514 5.15654C82.6096 5.34724 82.5387 5.55261 82.5387 5.77266H81.1818C81.1818 5.48905 81.2551 5.20788 81.4018 4.92916C81.5485 4.65043 81.7588 4.39861 82.0326 4.17367C82.3113 3.94385 82.6438 3.76293 83.0301 3.6309C83.4213 3.49398 83.8565 3.42552 84.3357 3.42552C84.9127 3.42552 85.4213 3.52332 85.8614 3.71892C86.3063 3.91451 86.6535 4.21035 86.9029 4.60643C87.1572 4.99762 87.2843 5.48905 87.2843 6.08072V9.77746C87.2843 10.0415 87.3063 10.3227 87.3503 10.621C87.3992 10.9192 87.4701 11.176 87.563 11.3911V11.5085H86.1474C86.079 11.352 86.0252 11.1442 85.9861 10.885C85.9469 10.621 85.9274 10.3765 85.9274 10.1515ZM86.1621 6.69684L86.1768 7.65037H84.8052C84.4189 7.65037 84.0741 7.68215 83.7709 7.74572C83.4678 7.8044 83.2135 7.89486 83.0081 8.0171C82.8028 8.13935 82.6463 8.29338 82.5387 8.4792C82.4311 8.66012 82.3773 8.87283 82.3773 9.11732C82.3773 9.36671 82.4336 9.59409 82.546 9.79946C82.6585 10.0048 82.8272 10.1686 83.0521 10.2909C83.282 10.4082 83.5631 10.4669 83.8956 10.4669C84.3113 10.4669 84.678 10.3789 84.9959 10.2029C85.3137 10.0268 85.5655 9.81168 85.7513 9.55741C85.942 9.30314 86.0447 9.0562 86.0594 8.8166L86.6389 9.46939C86.6046 9.67477 86.5117 9.90215 86.3601 10.1515C86.2085 10.4009 86.0056 10.6405 85.7513 10.8703C85.502 11.0953 85.2037 11.2835 84.8565 11.4351C84.5142 11.5818 84.1279 11.6552 83.6976 11.6552C83.1597 11.6552 82.6878 11.55 82.282 11.3398C81.881 11.1295 81.5681 10.8483 81.3431 10.4963C81.1231 10.1393 81.0131 9.74078 81.0131 9.30069C81.0131 8.87528 81.0962 8.5012 81.2624 8.17847C81.4287 7.85085 81.6683 7.57946 81.9813 7.36431C82.2942 7.14426 82.6707 6.97801 83.1108 6.86554C83.5509 6.75308 84.0423 6.69684 84.5851 6.69684H86.1621Z" fill="white"/>
<path d="M94.0397 9.40338C94.0397 9.20779 93.9956 9.02686 93.9076 8.86061C93.8245 8.68946 93.6509 8.53543 93.3869 8.39851C93.1277 8.25671 92.7365 8.13446 92.2133 8.03177C91.7732 7.93887 91.3747 7.82885 91.0177 7.70171C90.6657 7.57457 90.3649 7.42054 90.1155 7.23962C89.871 7.05869 89.6828 6.84598 89.5508 6.60149C89.4187 6.357 89.3527 6.07094 89.3527 5.74332C89.3527 5.43037 89.4212 5.13453 89.5581 4.85581C89.6999 4.57709 89.8979 4.33015 90.1522 4.115C90.4114 3.89984 90.7219 3.73114 91.0837 3.60889C91.4456 3.48665 91.849 3.42552 92.294 3.42552C92.9297 3.42552 93.4724 3.53799 93.9223 3.76293C94.3722 3.98786 94.7169 4.28859 94.9565 4.6651C95.1961 5.03673 95.3159 5.44993 95.3159 5.90468H93.959C93.959 5.68464 93.893 5.47193 93.7609 5.26656C93.6338 5.05629 93.4455 4.8827 93.1962 4.74579C92.9517 4.60887 92.6509 4.54041 92.294 4.54041C91.9175 4.54041 91.6118 4.59909 91.3771 4.71645C91.1473 4.82892 90.9786 4.97317 90.871 5.1492C90.7683 5.32524 90.717 5.51105 90.717 5.70665C90.717 5.85334 90.7414 5.98537 90.7903 6.10272C90.8441 6.21519 90.937 6.32032 91.0691 6.41812C91.2011 6.51103 91.3869 6.59904 91.6265 6.68217C91.8661 6.7653 92.1717 6.84843 92.5434 6.93156C93.1937 7.07825 93.7291 7.25429 94.1497 7.45966C94.5702 7.66503 94.8832 7.91686 95.0885 8.21514C95.2939 8.51343 95.3966 8.87528 95.3966 9.30069C95.3966 9.64787 95.3232 9.96571 95.1765 10.2542C95.0347 10.5427 94.8269 10.7921 94.5531 11.0024C94.2841 11.2077 93.9614 11.3691 93.5849 11.4865C93.2133 11.5989 92.7952 11.6552 92.3307 11.6552C91.6314 11.6552 91.0397 11.5305 90.5556 11.2811C90.0715 11.0317 89.7048 10.709 89.4554 10.3129C89.206 9.91682 89.0813 9.49873 89.0813 9.05865H90.4456C90.4652 9.43027 90.5727 9.72611 90.7683 9.94616C90.9639 10.1613 91.2035 10.3153 91.4871 10.4082C91.7708 10.4963 92.0519 10.5403 92.3307 10.5403C92.7023 10.5403 93.0128 10.4914 93.2622 10.3936C93.5164 10.2958 93.7096 10.1613 93.8416 9.99016C93.9736 9.81902 94.0397 9.62342 94.0397 9.40338Z" fill="white"/>
<path d="M98.6532 3.57222V11.5085H97.289V3.57222H98.6532ZM97.1863 1.46713C97.1863 1.24709 97.2523 1.06128 97.3843 0.909691C97.5212 0.758105 97.7217 0.682312 97.9858 0.682312C98.2449 0.682312 98.443 0.758105 98.5799 0.909691C98.7217 1.06128 98.7926 1.24709 98.7926 1.46713C98.7926 1.6774 98.7217 1.85832 98.5799 2.00991C98.443 2.15661 98.2449 2.22995 97.9858 2.22995C97.7217 2.22995 97.5212 2.15661 97.3843 2.00991C97.2523 1.85832 97.1863 1.6774 97.1863 1.46713Z" fill="white"/>
<path d="M102.189 5.26656V11.5085H100.832V3.57222H102.115L102.189 5.26656ZM101.866 7.23962L101.301 7.21761C101.306 6.67484 101.387 6.17363 101.543 5.71398C101.7 5.24944 101.92 4.84603 102.203 4.50374C102.487 4.16145 102.824 3.8974 103.215 3.71158C103.612 3.52088 104.049 3.42552 104.528 3.42552C104.92 3.42552 105.272 3.47931 105.585 3.58689C105.898 3.68958 106.164 3.85583 106.384 4.08566C106.609 4.31548 106.78 4.61376 106.898 4.9805C107.015 5.34235 107.074 5.78488 107.074 6.3081V11.5085H105.709V6.29343C105.709 5.87779 105.648 5.54528 105.526 5.2959C105.404 5.04162 105.225 4.85825 104.991 4.74579C104.756 4.62843 104.467 4.56975 104.125 4.56975C103.788 4.56975 103.48 4.64066 103.201 4.78246C102.927 4.92427 102.69 5.11986 102.489 5.36924C102.294 5.61863 102.14 5.90468 102.027 6.22742C101.92 6.54526 101.866 6.88266 101.866 7.23962Z" fill="white"/>
<path d="M108.775 7.62836V7.45966C108.775 6.88755 108.858 6.357 109.025 5.86801C109.191 5.37413 109.43 4.94627 109.743 4.58442C110.056 4.21768 110.435 3.93407 110.88 3.73359C111.325 3.52821 111.824 3.42552 112.377 3.42552C112.934 3.42552 113.435 3.52821 113.88 3.73359C114.33 3.93407 114.712 4.21768 115.024 4.58442C115.342 4.94627 115.584 5.37413 115.751 5.86801C115.917 6.357 116 6.88755 116 7.45966V7.62836C116 8.20047 115.917 8.73102 115.751 9.22001C115.584 9.709 115.342 10.1369 115.024 10.5036C114.712 10.8654 114.333 11.1491 113.888 11.3544C113.448 11.5549 112.949 11.6552 112.391 11.6552C111.834 11.6552 111.333 11.5549 110.888 11.3544C110.443 11.1491 110.061 10.8654 109.743 10.5036C109.43 10.1369 109.191 9.709 109.025 9.22001C108.858 8.73102 108.775 8.20047 108.775 7.62836ZM110.132 7.45966V7.62836C110.132 8.02444 110.179 8.39851 110.272 8.75058C110.364 9.09776 110.504 9.40583 110.69 9.67477C110.88 9.94371 111.117 10.1564 111.401 10.3129C111.685 10.4645 112.015 10.5403 112.391 10.5403C112.763 10.5403 113.088 10.4645 113.367 10.3129C113.65 10.1564 113.885 9.94371 114.071 9.67477C114.257 9.40583 114.396 9.09776 114.489 8.75058C114.587 8.39851 114.636 8.02444 114.636 7.62836V7.45966C114.636 7.06847 114.587 6.69929 114.489 6.35211C114.396 6.00004 114.254 5.68953 114.064 5.42059C113.878 5.14676 113.643 4.9316 113.359 4.77513C113.081 4.61865 112.753 4.54041 112.377 4.54041C112.005 4.54041 111.677 4.61865 111.394 4.77513C111.115 4.9316 110.88 5.14676 110.69 5.42059C110.504 5.68953 110.364 6.00004 110.272 6.35211C110.179 6.69929 110.132 7.06847 110.132 7.45966Z" fill="white"/>
<defs>
<radialGradient id="paint0_radial_62_5398" cx="0" cy="0" r="1" gradientUnits="userSpaceOnUse" gradientTransform="translate(14.8648 7.17006) rotate(-1.27884) scale(23.1353 23.2963)">
<stop stop-color="#8461D3"/>
<stop offset="0.99" stop-color="#7138B6"/>
</radialGradient>
<radialGradient id="paint1_radial_62_5398" cx="0" cy="0" r="1" gradientUnits="userSpaceOnUse" gradientTransform="translate(16.6959 15.8346) rotate(-1.27884) scale(14.3164 14.416)">
<stop stop-color="#6D47D3"/>
<stop offset="0.99" stop-color="#542492"/>
</radialGradient>
<linearGradient id="paint2_linear_62_5398" x1="9.61241" y1="32.1639" x2="8.9543" y2="2.68371" gradientUnits="userSpaceOnUse">
<stop stop-color="#3C1460"/>
<stop offset="0.99" stop-color="#3C1460"/>
</linearGradient>
<linearGradient id="paint3_linear_62_5398" x1="23533.8" y1="6022.86" x2="23460.6" y2="2388.52" gradientUnits="userSpaceOnUse">
<stop stop-color="#603082"/>
<stop offset="0.99" stop-color="#3C145F"/>
</linearGradient>
<linearGradient id="paint4_linear_62_5398" x1="9.85656" y1="31.8234" x2="9.22274" y2="3.43143" gradientUnits="userSpaceOnUse">
<stop offset="0.04" stop-color="#A4C6FF"/>
<stop offset="0.24" stop-color="#BD9BD2"/>
<stop offset="1" stop-color="#EBD7E3"/>
</linearGradient>
<linearGradient id="paint5_linear_62_5398" x1="22.8105" y1="31.5342" x2="22.1767" y2="3.14224" gradientUnits="userSpaceOnUse">
<stop stop-color="#83A8FF"/>
<stop offset="0.21" stop-color="#8E7BBB"/>
<stop offset="1" stop-color="#EBD7E3"/>
</linearGradient>
<linearGradient id="paint6_linear_62_5398" x1="11.5205" y1="17.9123" x2="20.9833" y2="17.7039" gradientUnits="userSpaceOnUse">
<stop stop-color="#2C2A88"/>
<stop offset="0.99" stop-color="#0C3C5A"/>
</linearGradient>
</defs>
</svg>
