<svg width="20" height="20" viewBox="0 0 20 20" fill="none" xmlns="http://www.w3.org/2000/svg">
<g clip-path="url(#clip0_1279_1181)">
<path d="M10 0C8.02219 0 6.08879 0.58649 4.4443 1.6853C2.79981 2.78412 1.51809 4.3459 0.761209 6.17316C0.00433286 8.00043 -0.1937 10.0111 0.192152 11.9509C0.578004 13.8907 1.53041 15.6725 2.92894 17.0711C4.32746 18.4696 6.10929 19.422 8.0491 19.8078C9.98891 20.1937 11.9996 19.9957 13.8268 19.2388C15.6541 18.4819 17.2159 17.2002 18.3147 15.5557C19.4135 13.9112 20 11.9778 20 10C19.9971 7.34871 18.9426 4.80684 17.0679 2.9321C15.1932 1.05736 12.6513 0.00286757 10 0V0ZM18.29 9.145C18.2928 9.174 18.2895 9.20326 18.2803 9.23092C18.2712 9.25858 18.2564 9.28404 18.2369 9.30567C18.2174 9.32731 18.1936 9.34464 18.167 9.35658C18.1404 9.36851 18.1116 9.37478 18.0825 9.375H16.405C16.3543 9.37519 16.3053 9.35682 16.2672 9.32335C16.2292 9.28988 16.2046 9.24363 16.1983 9.19333C16.0551 8.10017 15.6237 7.06478 14.9483 6.19333C14.9174 6.15315 14.9022 6.10313 14.9054 6.05254C14.9086 6.00196 14.9301 5.95427 14.9658 5.91833L16.1517 4.73333C16.1723 4.71268 16.197 4.69658 16.2243 4.68609C16.2515 4.6756 16.2806 4.67096 16.3098 4.67245C16.3389 4.67394 16.3674 4.68154 16.3935 4.69476C16.4195 4.70797 16.4424 4.72651 16.4608 4.74917C17.4869 6.00427 18.1228 7.53248 18.29 9.145ZM10.625 1.91667C10.6251 1.88749 10.6313 1.85866 10.6432 1.83202C10.6551 1.80539 10.6724 1.78153 10.6941 1.76199C10.7157 1.74245 10.7412 1.72765 10.7689 1.71856C10.7967 1.70946 10.826 1.70626 10.855 1.70917C12.4684 1.87497 13.9978 2.51004 15.2542 3.53583C15.2767 3.55432 15.2951 3.57726 15.3083 3.60322C15.3215 3.62918 15.3292 3.65759 15.3308 3.68667C15.3324 3.71585 15.3278 3.74505 15.3173 3.77233C15.3069 3.79962 15.2907 3.82438 15.27 3.845L14.0833 5.03167C14.0476 5.0675 14.0001 5.08906 13.9496 5.09229C13.8991 5.09551 13.8491 5.08017 13.8092 5.04917C12.9365 4.37328 11.8996 3.94185 10.805 3.79917C10.7548 3.79287 10.7087 3.76849 10.6753 3.73059C10.6418 3.69269 10.6233 3.64388 10.6233 3.59333L10.625 1.91667ZM13.3333 6.66667C13.3333 6.83148 13.2845 6.9926 13.1929 7.12964C13.1013 7.26668 12.9712 7.37349 12.8189 7.43656C12.6666 7.49964 12.4991 7.51614 12.3374 7.48399C12.1758 7.45183 12.0273 7.37246 11.9107 7.25592C11.7942 7.13938 11.7148 6.99089 11.6827 6.82924C11.6505 6.66759 11.667 6.50003 11.7301 6.34776C11.7932 6.19549 11.9 6.06534 12.037 5.97377C12.1741 5.88221 12.3352 5.83333 12.5 5.83333C12.721 5.83333 12.933 5.92113 13.0893 6.07741C13.2455 6.23369 13.3333 6.44565 13.3333 6.66667ZM9.145 1.71C9.174 1.70722 9.20327 1.71051 9.23093 1.71966C9.25859 1.7288 9.28405 1.74361 9.30568 1.76312C9.32731 1.78264 9.34464 1.80644 9.35658 1.83302C9.36851 1.8596 9.37479 1.88837 9.375 1.9175V3.595C9.37519 3.64569 9.35682 3.6947 9.32335 3.73278C9.28988 3.77085 9.24363 3.79536 9.19334 3.80167C8.0988 3.9445 7.06196 4.37592 6.18917 5.05167C6.14903 5.08189 6.09928 5.09653 6.04916 5.09285C5.99905 5.08917 5.95197 5.06743 5.91667 5.03167L4.73 3.84583C4.70915 3.82531 4.69294 3.80056 4.68244 3.77325C4.67195 3.74594 4.66742 3.7167 4.66917 3.6875C4.67114 3.65806 4.67937 3.62937 4.69331 3.60336C4.70725 3.57735 4.72658 3.55461 4.75 3.53667C6.00517 2.51162 7.53305 1.8766 9.145 1.71ZM3.53667 4.75C3.55452 4.72627 3.57719 4.70658 3.60318 4.69222C3.62918 4.67786 3.65791 4.66915 3.6875 4.66667C3.71669 4.66508 3.74588 4.66968 3.77317 4.68017C3.80046 4.69065 3.82522 4.70678 3.84584 4.7275L5.03167 5.91667C5.06741 5.9526 5.08888 6.0003 5.0921 6.05088C5.09532 6.10146 5.08007 6.15149 5.04917 6.19167C4.37382 7.06311 3.94241 8.09851 3.79917 9.19166C3.79288 9.24182 3.76849 9.28796 3.73059 9.32141C3.69269 9.35485 3.64389 9.37332 3.59334 9.37333H1.91667C1.8875 9.37324 1.85867 9.36706 1.83203 9.35516C1.80539 9.34327 1.78153 9.32594 1.76199 9.30428C1.74245 9.28262 1.72766 9.25711 1.71856 9.22939C1.70946 9.20167 1.70627 9.17236 1.70917 9.14333C1.87632 7.53187 2.51162 6.0046 3.53667 4.75ZM1.71 10.855C1.70723 10.8261 1.7105 10.7969 1.7196 10.7693C1.72869 10.7417 1.74342 10.7162 1.76284 10.6946C1.78227 10.673 1.80597 10.6557 1.83245 10.6437C1.85893 10.6317 1.88761 10.6253 1.91667 10.625H3.595C3.6457 10.6248 3.69471 10.6432 3.73278 10.6766C3.77085 10.7101 3.79536 10.7564 3.80167 10.8067C3.94491 11.8998 4.37632 12.9352 5.05167 13.8067C5.08257 13.8468 5.09782 13.8969 5.0946 13.9475C5.09138 13.998 5.06991 14.0457 5.03417 14.0817L3.84584 15.27C3.82522 15.2907 3.80049 15.3067 3.77325 15.3172C3.74602 15.3277 3.71688 15.3324 3.68773 15.3309C3.65858 15.3294 3.63007 15.3218 3.60405 15.3086C3.57803 15.2954 3.55507 15.2768 3.53667 15.2542C2.51088 13.9978 1.87581 12.4684 1.71 10.855ZM9.37667 18.0825C9.37658 18.1117 9.37039 18.1405 9.3585 18.1671C9.34661 18.1938 9.32928 18.2176 9.30762 18.2372C9.28595 18.2567 9.26045 18.2715 9.23273 18.2806C9.20501 18.2897 9.1757 18.2929 9.14667 18.29C7.53413 18.1237 6.00563 17.4887 4.75 16.4633C4.7275 16.4448 4.70907 16.4219 4.69588 16.3959C4.68268 16.37 4.67501 16.3416 4.67334 16.3125C4.67175 16.2833 4.67635 16.2541 4.68684 16.2268C4.69732 16.1995 4.71345 16.1748 4.73417 16.1542L5.91667 14.9683C5.95238 14.9325 5.99995 14.9109 6.05044 14.9077C6.10093 14.9045 6.15086 14.9198 6.19084 14.9508C7.06355 15.6267 8.10043 16.0582 9.195 16.2008C9.24516 16.2071 9.29129 16.2315 9.32474 16.2694C9.35819 16.3073 9.37666 16.3561 9.37667 16.4067V18.0825ZM10 13.5417C9.83424 13.5417 9.67527 13.4758 9.55806 13.3586C9.44085 13.2414 9.375 13.0824 9.375 12.9167V11.68C9.375 11.6412 9.36416 11.6031 9.34369 11.5702C9.32322 11.5372 9.29395 11.5106 9.25917 11.4933C8.93499 11.3305 8.67196 11.0675 8.50917 10.7433C8.49194 10.7086 8.46533 10.6793 8.43235 10.6588C8.39936 10.6383 8.36132 10.6275 8.3225 10.6275H7.08334C6.91758 10.6275 6.7586 10.5617 6.64139 10.4444C6.52418 10.3272 6.45834 10.1683 6.45834 10.0025C6.45834 9.83674 6.52418 9.67777 6.64139 9.56056C6.7586 9.44335 6.91758 9.3775 7.08334 9.3775H8.32C8.35882 9.3775 8.39686 9.36665 8.42984 9.34619C8.46283 9.32572 8.48944 9.29645 8.50667 9.26167C8.66947 8.93748 8.93249 8.67446 9.25667 8.51167C9.29145 8.49443 9.32072 8.46782 9.34119 8.43484C9.36166 8.40186 9.3725 8.36381 9.3725 8.325V7.08333C9.3725 6.91757 9.43835 6.7586 9.55556 6.64139C9.67277 6.52418 9.83174 6.45833 9.9975 6.45833C10.1633 6.45833 10.3222 6.52418 10.4394 6.64139C10.5567 6.7586 10.6225 6.91757 10.6225 7.08333V8.32C10.6225 8.35882 10.6333 8.39686 10.6538 8.42984C10.6743 8.46282 10.7036 8.48943 10.7383 8.50667C11.0625 8.66946 11.3255 8.93248 11.4883 9.25667C11.5056 9.29144 11.5322 9.32072 11.5652 9.34119C11.5981 9.36165 11.6362 9.3725 11.675 9.3725H12.9167C13.0824 9.3725 13.2414 9.43835 13.3586 9.55556C13.4758 9.67277 13.5417 9.83174 13.5417 9.9975C13.5417 10.1633 13.4758 10.3222 13.3586 10.4394C13.2414 10.5567 13.0824 10.6225 12.9167 10.6225H11.68C11.6412 10.6225 11.6031 10.6333 11.5702 10.6538C11.5372 10.6743 11.5106 10.7036 11.4933 10.7383C11.3305 11.0625 11.0675 11.3255 10.7433 11.4883C10.7086 11.5056 10.6793 11.5322 10.6588 11.5652C10.6383 11.5981 10.6275 11.6362 10.6275 11.675V12.9167C10.6275 12.999 10.6113 13.0804 10.5797 13.1564C10.5481 13.2324 10.5019 13.3014 10.4436 13.3595C10.3853 13.4176 10.3161 13.4635 10.2399 13.4948C10.1638 13.5261 10.0823 13.542 10 13.5417ZM10.855 18.2917C10.826 18.2944 10.7967 18.2911 10.7691 18.282C10.7414 18.2729 10.716 18.2581 10.6943 18.2385C10.6727 18.219 10.6554 18.1952 10.6434 18.1686C10.6315 18.1421 10.6252 18.1133 10.625 18.0842V16.405C10.6248 16.3543 10.6432 16.3053 10.6767 16.2672C10.7101 16.2291 10.7564 16.2046 10.8067 16.1983C11.9012 16.0557 12.9381 15.6242 13.8108 14.9483C13.8508 14.9173 13.9007 14.902 13.9512 14.9052C14.0017 14.9084 14.0493 14.93 14.085 14.9658L15.27 16.1517C15.2909 16.1722 15.3071 16.1969 15.3176 16.2242C15.3281 16.2516 15.3326 16.2808 15.3308 16.31C15.3294 16.3391 15.3218 16.3676 15.3086 16.3936C15.2954 16.4196 15.2768 16.4425 15.2542 16.4608C13.9981 17.4875 12.4687 18.1235 10.855 18.29V18.2917ZM16.4633 15.2558C16.4449 15.2783 16.4219 15.2968 16.3959 15.31C16.37 15.3232 16.3416 15.3308 16.3125 15.3325C16.2833 15.3341 16.2541 15.3295 16.2268 15.319C16.1995 15.3085 16.1748 15.2924 16.1542 15.2717L14.9683 14.0833C14.9326 14.0474 14.9111 13.9997 14.9079 13.9491C14.9047 13.8985 14.9199 13.8485 14.9508 13.8083C15.6262 12.9369 16.0576 11.9015 16.2008 10.8083C16.2071 10.7582 16.2315 10.712 16.2694 10.6786C16.3073 10.6451 16.3561 10.6267 16.4067 10.6267H18.0833C18.1125 10.6268 18.1413 10.6329 18.168 10.6448C18.1946 10.6567 18.2185 10.6741 18.238 10.6957C18.2576 10.7174 18.2723 10.7429 18.2814 10.7706C18.2905 10.7983 18.2937 10.8276 18.2908 10.8567C18.1245 12.4696 17.4891 13.9984 16.4633 15.2542V15.2558Z" fill="#3C2A5C"/>
</g>
<defs>
<clipPath id="clip0_1279_1181">
<rect width="20" height="20" fill="white"/>
</clipPath>
</defs>
</svg>
