<svg width="20" height="20" viewBox="0 0 20 20" fill="none" xmlns="http://www.w3.org/2000/svg">
<g clip-path="url(#clip0_1279_1194)">
<path d="M13.6435 10.3816C13.8019 10.2446 13.9116 10.0615 13.9566 9.85906C14.0016 9.65659 13.9794 9.44533 13.8935 9.25606L12.9661 7.16428C12.9491 7.12602 12.9445 7.08358 12.9528 7.04266C12.9611 7.00174 12.9821 6.96431 13.0127 6.9354L14.6884 5.35532C14.8324 5.22015 14.932 5.04582 14.9743 4.85473C15.0166 4.66363 14.9998 4.46449 14.9259 4.28287C14.8499 4.1044 14.7206 3.95266 14.5551 3.84762C14.3896 3.74257 14.1955 3.68913 13.9984 3.69432H12.1161C12.0761 3.69416 12.0369 3.68275 12.0033 3.66146C11.9696 3.64017 11.9429 3.60988 11.9262 3.57416L10.9154 1.39492L10.9079 1.3802C10.8231 1.21522 10.6932 1.07668 10.5326 0.980088C10.372 0.883499 10.1872 0.832688 9.99886 0.83335C9.80778 0.833241 9.62052 0.885836 9.45845 0.985134C9.29638 1.08443 9.16604 1.22643 9.08229 1.39492L8.07073 3.57416C8.05421 3.61 8.0275 3.64041 7.9938 3.66172C7.9601 3.68304 7.92084 3.69436 7.88075 3.69432H5.99928C5.80218 3.68901 5.60806 3.74241 5.44251 3.84747C5.27696 3.95253 5.14774 4.10433 5.07187 4.28287C4.99801 4.46501 4.98148 4.66469 5.0244 4.85613C5.06732 5.04758 5.16773 5.22203 5.31268 5.35696L6.98501 6.9354C7.01578 6.96425 7.03676 7.00168 7.0451 7.04263C7.05345 7.08357 7.04876 7.12604 7.03167 7.16428L6.10593 9.25524C6.01982 9.44449 5.99763 9.65579 6.04261 9.85828C6.08758 10.0608 6.19735 10.2439 6.35591 10.3808C6.51432 10.5242 6.7153 10.6142 6.92951 10.6375C7.14373 10.6609 7.35995 10.6165 7.54662 10.5108L9.89804 9.2111C9.92918 9.19384 9.96434 9.18477 10.0001 9.18477C10.0359 9.18477 10.071 9.19384 10.1022 9.2111L12.4536 10.5108C12.6405 10.6152 12.8562 10.6589 13.0699 10.6357C13.2836 10.6125 13.4844 10.5236 13.6435 10.3816Z" fill="#3C2A5C"/>
<path d="M7.7603 15.1889C7.74487 15.0826 7.70824 14.9803 7.65251 14.8878C7.59678 14.7954 7.52304 14.7146 7.43549 14.6501C7.34794 14.5857 7.2483 14.5387 7.14226 14.512C7.03622 14.4853 6.92586 14.4794 6.81748 14.4945C6.7091 14.5096 6.60481 14.5456 6.51058 14.6002C6.41635 14.6549 6.33402 14.7272 6.26829 14.8131C6.20256 14.899 6.15472 14.9968 6.1275 15.1008C6.10028 15.2048 6.09421 15.3131 6.10964 15.4194L6.33211 16.939C6.33974 16.9926 6.32545 17.047 6.29236 17.0903C6.25927 17.1337 6.21006 17.1624 6.15546 17.1703L4.61312 17.3861C4.40451 17.4153 4.21491 17.5209 4.0825 17.6817C3.95008 17.8425 3.88468 18.0465 3.89947 18.2527C3.91426 18.4589 4.00813 18.652 4.1622 18.793C4.31626 18.934 4.51906 19.0126 4.72978 19.0128C4.8131 19.0128 4.65812 19.0308 7.00954 18.7022C7.17221 18.6793 7.32869 18.6253 7.47002 18.543C7.61136 18.4608 7.73478 18.352 7.83323 18.223C7.93167 18.0939 8.00321 17.9471 8.04374 17.7908C8.08427 17.6346 8.093 17.4721 8.06943 17.3126L7.7603 15.1889Z" fill="#3C2A5C"/>
<path d="M5.18008 16.1837C5.30937 16.0845 5.41738 15.9613 5.4979 15.821C5.57841 15.6807 5.62983 15.5262 5.6492 15.3663L5.84501 13.765C5.86115 13.657 5.85509 13.547 5.82719 13.4413C5.79928 13.3357 5.75011 13.2366 5.68255 13.1499C5.615 13.0632 5.53044 12.9907 5.43386 12.9366C5.33727 12.8825 5.23062 12.8479 5.12019 12.8348C5.00975 12.8218 4.89778 12.8305 4.79086 12.8606C4.68394 12.8907 4.58424 12.9415 4.49764 13.01C4.41105 13.0785 4.3393 13.1632 4.28664 13.2594C4.23398 13.3555 4.20146 13.461 4.19102 13.5696L4.06936 14.5595C4.06616 14.5861 4.05762 14.6119 4.04423 14.6353C4.03084 14.6587 4.01286 14.6793 3.99133 14.6959C3.9698 14.7124 3.94515 14.7247 3.91878 14.7318C3.89242 14.739 3.86487 14.741 3.83772 14.7377L2.83782 14.6183C2.6209 14.5969 2.40406 14.6598 2.23383 14.7934C2.0636 14.9271 1.95354 15.1208 1.92727 15.3331C1.90099 15.5455 1.96059 15.7594 2.09327 15.9291C2.22596 16.0989 2.42116 16.2108 2.63701 16.2409L4.26101 16.4355C4.42356 16.455 4.58844 16.4428 4.74617 16.3996C4.9039 16.3564 5.05136 16.283 5.18008 16.1837Z" fill="#3C2A5C"/>
<path d="M3.29347 13.5933C3.44415 13.5302 3.58061 13.4385 3.69501 13.3235C3.80942 13.2084 3.8995 13.0723 3.96007 12.923L4.48918 11.6307C4.52994 11.531 4.55029 11.4244 4.54907 11.317C4.54785 11.2096 4.52508 11.1036 4.48206 11.0048C4.43904 10.906 4.37661 10.8166 4.29834 10.7415C4.22008 10.6664 4.1275 10.6072 4.0259 10.5672C3.9243 10.5272 3.81567 10.5072 3.7062 10.5084C3.59674 10.5096 3.48859 10.532 3.38792 10.5742C3.28726 10.6164 3.19605 10.6776 3.11952 10.7544C3.04298 10.8312 2.9826 10.922 2.94184 11.0217L2.64687 11.7426C2.62631 11.7929 2.58623 11.8332 2.53545 11.8545C2.48467 11.8758 2.42734 11.8764 2.37607 11.8563L1.64614 11.5677C1.44235 11.4917 1.2163 11.497 1.01649 11.5826C0.816681 11.6682 0.659027 11.8272 0.577358 12.0256C0.495688 12.2239 0.496508 12.4457 0.579643 12.6434C0.662777 12.8412 0.821603 12.999 1.02204 13.0832L2.33524 13.6031C2.48761 13.664 2.65084 13.6945 2.81536 13.6928C2.97989 13.6911 3.14243 13.6573 3.29347 13.5933Z" fill="#3C2A5C"/>
<path d="M2.24977 10.8852C2.41264 10.8632 2.56941 10.8096 2.71091 10.7275C2.8524 10.6454 2.97579 10.5364 3.07385 10.407L3.82378 9.42606C3.93454 9.27582 3.98994 9.09311 3.98089 8.90791C3.97185 8.72271 3.89889 8.54602 3.77399 8.40686C3.64909 8.2677 3.47967 8.17433 3.29355 8.14208C3.10743 8.10982 2.91566 8.1406 2.74972 8.22936L2.56391 6.66645C2.55143 6.5598 2.51767 6.45661 2.46454 6.36276C2.41141 6.26892 2.33996 6.18625 2.25427 6.1195C2.16858 6.05274 2.07032 6.00319 1.96511 5.97369C1.8599 5.94418 1.7498 5.93529 1.64108 5.94753C1.53237 5.95977 1.42718 5.99289 1.33152 6.04501C1.23585 6.09713 1.15159 6.16722 1.08354 6.25128C1.01549 6.33535 0.964984 6.43174 0.934907 6.53495C0.904829 6.63816 0.895769 6.74618 0.908243 6.85282L1.10072 8.50074C0.935868 8.44245 0.756343 8.43735 0.588321 8.48616C0.420299 8.53498 0.272563 8.63517 0.166653 8.77213C0.0340583 8.94556 -0.0228749 9.16357 0.00837796 9.37818C0.0396308 9.5928 0.15651 9.78644 0.333302 9.91652L1.32653 10.6522C1.45712 10.7489 1.60594 10.8193 1.7644 10.8593C1.92286 10.8993 2.08783 10.9081 2.24977 10.8852Z" fill="#3C2A5C"/>
<path d="M15.3861 17.3861L13.8438 17.1703C13.7892 17.1624 13.74 17.1337 13.7069 17.0904C13.6738 17.047 13.6595 16.9926 13.6671 16.939L13.8879 15.4194C13.9191 15.2047 13.862 14.9866 13.7293 14.8131C13.5965 14.6397 13.399 14.5251 13.1801 14.4945C12.9612 14.4639 12.7389 14.5199 12.5621 14.6501C12.3853 14.7804 12.2684 14.9742 12.2373 15.1889L11.9298 17.3142C11.9062 17.4737 11.9149 17.6361 11.9554 17.7923C11.9959 17.9485 12.0673 18.0953 12.1657 18.2244C12.2641 18.3534 12.3874 18.4622 12.5286 18.5445C12.6699 18.6267 12.8263 18.6809 12.9889 18.7038C15.322 19.0308 15.1845 19.0152 15.2695 19.0152C15.4802 19.015 15.683 18.9365 15.837 18.7955C15.9911 18.6544 16.085 18.4614 16.0998 18.2552C16.1146 18.049 16.0492 17.8449 15.9167 17.6841C15.7843 17.5233 15.5947 17.4177 15.3861 17.3886V17.3861Z" fill="#3C2A5C"/>
<path d="M17.165 14.62L16.1651 14.7393C16.1379 14.7426 16.1104 14.7406 16.084 14.7335C16.0577 14.7263 16.033 14.7141 16.0115 14.6975C15.9899 14.6809 15.972 14.6604 15.9586 14.6369C15.9452 14.6135 15.9366 14.5878 15.9334 14.5611L15.8118 13.5712C15.7803 13.3603 15.666 13.1698 15.4934 13.0404C15.3208 12.9109 15.1035 12.8528 14.8877 12.8782C14.672 12.9037 14.475 13.0109 14.3386 13.1768C14.2023 13.3427 14.1374 13.5544 14.1578 13.7666L14.3536 15.3679C14.3936 15.6904 14.5625 15.9841 14.8231 16.1846C15.0836 16.385 15.4147 16.4759 15.7435 16.4371L17.3683 16.2425C17.5841 16.2124 17.7793 16.1005 17.912 15.9308C18.0447 15.7611 18.1043 15.5471 18.078 15.3348C18.0518 15.1224 17.9417 14.9287 17.7715 14.7951C17.6012 14.6614 17.3844 14.5986 17.1675 14.62H17.165Z" fill="#3C2A5C"/>
<path d="M18.3488 11.5677L17.6189 11.8563C17.5676 11.8764 17.5103 11.8758 17.4595 11.8545C17.4087 11.8332 17.3687 11.7929 17.3481 11.7426L17.0531 11.0217C16.9708 10.8204 16.8103 10.6594 16.607 10.5742C16.4037 10.489 16.1743 10.4864 15.9691 10.5672C15.7639 10.6479 15.5998 10.8054 15.5129 11.0048C15.426 11.2042 15.4235 11.4294 15.5058 11.6307L16.0349 12.9222C16.0962 13.072 16.187 13.2084 16.3022 13.3236C16.4174 13.4389 16.5546 13.5307 16.706 13.5938C16.8575 13.6569 17.0201 13.6901 17.1846 13.6914C17.3491 13.6927 17.5123 13.6621 17.6647 13.6015L18.9771 13.0816C19.1775 12.9974 19.3364 12.8395 19.4195 12.6418C19.5026 12.4441 19.5034 12.2222 19.4218 12.0239C19.3401 11.8256 19.1825 11.6666 18.9826 11.581C18.7828 11.4954 18.5568 11.49 18.353 11.5661L18.3488 11.5677Z" fill="#3C2A5C"/>
<path d="M19.8311 8.77213C19.7253 8.63551 19.5779 8.53554 19.4102 8.48674C19.2425 8.43793 19.0634 8.44284 18.8987 8.50074L19.0912 6.85282C19.1037 6.74618 19.0946 6.63816 19.0646 6.53495C19.0345 6.43174 18.984 6.33535 18.9159 6.25128C18.8479 6.16722 18.7636 6.09713 18.6679 6.04501C18.5723 5.99289 18.4671 5.95977 18.3584 5.94753C18.2497 5.93529 18.1396 5.94418 18.0343 5.97369C17.9291 6.00319 17.8309 6.05274 17.7452 6.1195C17.6595 6.18625 17.588 6.26892 17.5349 6.36276C17.4818 6.45661 17.448 6.5598 17.4356 6.66645L17.2481 8.22936C17.0818 8.13881 16.8889 8.10681 16.7015 8.13867C16.514 8.17053 16.3434 8.26434 16.2178 8.40451C16.0923 8.54468 16.0194 8.72277 16.0112 8.9092C16.0031 9.09563 16.0603 9.27917 16.1732 9.42933L16.9231 10.4102C17.0216 10.5391 17.145 10.6476 17.2862 10.7296C17.4274 10.8117 17.5838 10.8656 17.7462 10.8884C17.9087 10.9111 18.0742 10.9023 18.2332 10.8623C18.3922 10.8224 18.5416 10.7521 18.6729 10.6555L19.6662 9.91979C19.754 9.85523 19.8281 9.77428 19.8839 9.68158C19.9398 9.58887 19.9765 9.48625 19.9918 9.3796C20.0072 9.27295 20.0009 9.16438 19.9733 9.06013C19.9457 8.95588 19.8974 8.85801 19.8311 8.77213Z" fill="#3C2A5C"/>
</g>
<defs>
<clipPath id="clip0_1279_1194">
<rect width="20" height="20" fill="white"/>
</clipPath>
</defs>
</svg>
