<svg width="20" height="20" viewBox="0 0 20 20" fill="none" xmlns="http://www.w3.org/2000/svg">
<path d="M18.3333 12.9167H14.5833C14.3623 12.9167 14.1504 12.8289 13.9941 12.6726C13.8378 12.5163 13.75 12.3043 13.75 12.0833C13.75 11.8623 13.8378 11.6504 13.9941 11.4941C14.1504 11.3378 14.3623 11.25 14.5833 11.25H18.125C18.1803 11.25 18.2332 11.2281 18.2723 11.189C18.3114 11.1499 18.3333 11.0969 18.3333 11.0417V1.875C18.3333 1.81975 18.3114 1.76676 18.2723 1.72769C18.2332 1.68862 18.1803 1.66667 18.125 1.66667H9.375C9.31975 1.66667 9.26676 1.68862 9.22769 1.72769C9.18862 1.76676 9.16667 1.81975 9.16667 1.875V5.41667C9.16667 5.63768 9.07887 5.84964 8.92259 6.00592C8.76631 6.1622 8.55435 6.25 8.33333 6.25C8.11232 6.25 7.90036 6.1622 7.74408 6.00592C7.5878 5.84964 7.5 5.63768 7.5 5.41667V1.66667C7.5 1.22464 7.6756 0.800716 7.98816 0.488155C8.30072 0.175595 8.72464 0 9.16667 0L18.3333 0C18.7754 0 19.1993 0.175595 19.5118 0.488155C19.8244 0.800716 20 1.22464 20 1.66667V11.25C20 11.692 19.8244 12.116 19.5118 12.4285C19.1993 12.7411 18.7754 12.9167 18.3333 12.9167Z" fill="#3C2A5C"/>
<path d="M15.8333 9.58335C16.2936 9.58335 16.6667 9.21026 16.6667 8.75002C16.6667 8.28978 16.2936 7.91669 15.8333 7.91669C15.3731 7.91669 15 8.28978 15 8.75002C15 9.21026 15.3731 9.58335 15.8333 9.58335Z" fill="#3C2A5C"/>
<path d="M15.8333 4.99998C16.2936 4.99998 16.6667 4.62688 16.6667 4.16665C16.6667 3.70641 16.2936 3.33331 15.8333 3.33331C15.3731 3.33331 15 3.70641 15 4.16665C15 4.62688 15.3731 4.99998 15.8333 4.99998Z" fill="#3C2A5C"/>
<path d="M12.0833 4.99998C12.5436 4.99998 12.9167 4.62688 12.9167 4.16665C12.9167 3.70641 12.5436 3.33331 12.0833 3.33331C11.6231 3.33331 11.25 3.70641 11.25 4.16665C11.25 4.62688 11.6231 4.99998 12.0833 4.99998Z" fill="#3C2A5C"/>
<path d="M11.25 7.5H1.25C0.918479 7.5 0.600537 7.6317 0.366116 7.86612C0.131696 8.10054 0 8.41848 0 8.75L0 18.75C0 19.0815 0.131696 19.3995 0.366116 19.6339C0.600537 19.8683 0.918479 20 1.25 20H11.25C11.5815 20 11.8995 19.8683 12.1339 19.6339C12.3683 19.3995 12.5 19.0815 12.5 18.75V8.75C12.5 8.41848 12.3683 8.10054 12.1339 7.86612C11.8995 7.6317 11.5815 7.5 11.25 7.5ZM2.91667 16.6667C2.75185 16.6667 2.59073 16.6178 2.45369 16.5262C2.31665 16.4347 2.20984 16.3045 2.14677 16.1522C2.08369 16 2.06719 15.8324 2.09935 15.6708C2.1315 15.5091 2.21087 15.3606 2.32741 15.2441C2.44395 15.1275 2.59244 15.0482 2.75409 15.016C2.91574 14.9839 3.0833 15.0004 3.23557 15.0634C3.38784 15.1265 3.51799 15.2333 3.60956 15.3704C3.70113 15.5074 3.75 15.6685 3.75 15.8333C3.75 16.0543 3.6622 16.2663 3.50592 16.4226C3.34964 16.5789 3.13768 16.6667 2.91667 16.6667ZM2.91667 12.5C2.75185 12.5 2.59073 12.4511 2.45369 12.3596C2.31665 12.268 2.20984 12.1378 2.14677 11.9856C2.08369 11.8333 2.06719 11.6657 2.09935 11.5041C2.1315 11.3424 2.21087 11.194 2.32741 11.0774C2.44395 10.9609 2.59244 10.8815 2.75409 10.8493C2.91574 10.8172 3.0833 10.8337 3.23557 10.8968C3.38784 10.9598 3.51799 11.0667 3.60956 11.2037C3.70113 11.3407 3.75 11.5018 3.75 11.6667C3.75 11.8877 3.6622 12.0996 3.50592 12.2559C3.34964 12.4122 3.13768 12.5 2.91667 12.5ZM6.25 16.6667C6.08518 16.6667 5.92407 16.6178 5.78702 16.5262C5.64998 16.4347 5.54317 16.3045 5.4801 16.1522C5.41703 16 5.40052 15.8324 5.43268 15.6708C5.46483 15.5091 5.5442 15.3606 5.66074 15.2441C5.77729 15.1275 5.92577 15.0482 6.08742 15.016C6.24908 14.9839 6.41663 15.0004 6.5689 15.0634C6.72117 15.1265 6.85132 15.2333 6.94289 15.3704C7.03446 15.5074 7.08333 15.6685 7.08333 15.8333C7.08333 16.0543 6.99554 16.2663 6.83926 16.4226C6.68297 16.5789 6.47101 16.6667 6.25 16.6667ZM6.25 12.5C6.08518 12.5 5.92407 12.4511 5.78702 12.3596C5.64998 12.268 5.54317 12.1378 5.4801 11.9856C5.41703 11.8333 5.40052 11.6657 5.43268 11.5041C5.46483 11.3424 5.5442 11.194 5.66074 11.0774C5.77729 10.9609 5.92577 10.8815 6.08742 10.8493C6.24908 10.8172 6.41663 10.8337 6.5689 10.8968C6.72117 10.9598 6.85132 11.0667 6.94289 11.2037C7.03446 11.3407 7.08333 11.5018 7.08333 11.6667C7.08333 11.8877 6.99554 12.0996 6.83926 12.2559C6.68297 12.4122 6.47101 12.5 6.25 12.5ZM9.58333 16.6667C9.41852 16.6667 9.2574 16.6178 9.12036 16.5262C8.98332 16.4347 8.87651 16.3045 8.81343 16.1522C8.75036 16 8.73386 15.8324 8.76601 15.6708C8.79817 15.5091 8.87753 15.3606 8.99408 15.2441C9.11062 15.1275 9.25911 15.0482 9.42076 15.016C9.58241 14.9839 9.74996 15.0004 9.90224 15.0634C10.0545 15.1265 10.1847 15.2333 10.2762 15.3704C10.3678 15.5074 10.4167 15.6685 10.4167 15.8333C10.4167 16.0543 10.3289 16.2663 10.1726 16.4226C10.0163 16.5789 9.80435 16.6667 9.58333 16.6667ZM9.58333 12.5C9.41852 12.5 9.2574 12.4511 9.12036 12.3596C8.98332 12.268 8.87651 12.1378 8.81343 11.9856C8.75036 11.8333 8.73386 11.6657 8.76601 11.5041C8.79817 11.3424 8.87753 11.194 8.99408 11.0774C9.11062 10.9609 9.25911 10.8815 9.42076 10.8493C9.58241 10.8172 9.74996 10.8337 9.90224 10.8968C10.0545 10.9598 10.1847 11.0667 10.2762 11.2037C10.3678 11.3407 10.4167 11.5018 10.4167 11.6667C10.4167 11.8877 10.3289 12.0996 10.1726 12.2559C10.0163 12.4122 9.80435 12.5 9.58333 12.5Z" fill="#3C2A5C"/>
</svg>
