<svg width="20" height="20" viewBox="0 0 20 20" fill="none" xmlns="http://www.w3.org/2000/svg">
<g clip-path="url(#clip0_1279_1188)">
<path d="M10.6236 10.0013C10.6236 10.1118 10.6675 10.2177 10.7457 10.2959C10.8238 10.374 10.9298 10.4179 11.0403 10.4179H18.1227C18.5092 10.4172 18.8797 10.2634 19.153 9.99009C19.4263 9.71677 19.5802 9.34627 19.5808 8.95975V7.29329C19.5804 6.9067 19.4266 6.53607 19.1533 6.26271C18.8799 5.98935 18.5093 5.83559 18.1227 5.83514H11.0403C10.9298 5.83514 10.8238 5.87904 10.7457 5.95717C10.6675 6.0353 10.6236 6.14127 10.6236 6.25176V10.0013Z" fill="#3C2A5C"/>
<path d="M2.9163 10.4179H8.9572C9.06769 10.4179 9.17366 10.374 9.25179 10.2959C9.32992 10.2177 9.37381 10.1118 9.37381 10.0013V6.25176C9.37381 6.14127 9.32992 6.0353 9.25179 5.95717C9.17366 5.87904 9.06769 5.83514 8.9572 5.83514H1.45815C1.07156 5.83559 0.70093 5.98935 0.427569 6.26271C0.154209 6.53607 0.000441061 6.9067 0 7.29329V8.95975C0.000660911 9.34627 0.154499 9.71677 0.427812 9.99009C0.701125 10.2634 1.07163 10.4172 1.45815 10.4179H2.9163Z" fill="#3C2A5C"/>
<path d="M9.37389 12.0843C9.37389 11.9738 9.33 11.8679 9.25187 11.7897C9.17374 11.7116 9.06777 11.6677 8.95728 11.6677H2.08315C1.97266 11.6677 1.86669 11.7116 1.78856 11.7897C1.71043 11.8679 1.66653 11.9738 1.66653 12.0843V18.5419C1.6672 18.9284 1.82103 19.2989 2.09435 19.5722C2.36766 19.8455 2.73816 19.9993 3.12468 20H8.95728C9.06777 20 9.17374 19.9561 9.25187 19.878C9.33 19.7998 9.37389 19.6939 9.37389 19.5834V12.0843Z" fill="#3C2A5C"/>
<path d="M11.0403 11.6677C10.9298 11.6677 10.8238 11.7116 10.7457 11.7897C10.6675 11.8679 10.6236 11.9738 10.6236 12.0843V19.5834C10.6236 19.6939 10.6675 19.7998 10.7457 19.878C10.8238 19.9561 10.9298 20 11.0403 20H16.4562C16.8428 19.9993 17.2133 19.8455 17.4866 19.5722C17.7599 19.2989 17.9137 18.9284 17.9144 18.5419V12.0843C17.9144 11.9738 17.8705 11.8679 17.7924 11.7897C17.7142 11.7116 17.6083 11.6677 17.4978 11.6677H11.0403Z" fill="#3C2A5C"/>
<path d="M10.6591 5.59099C10.7604 5.69194 10.8859 5.76513 11.0237 5.80351C11.1614 5.84189 11.3068 5.84417 11.4457 5.81013C12.4314 5.56933 14.8036 4.93191 15.5285 4.207C15.9904 3.74436 16.2497 3.11716 16.2492 2.46337C16.2488 1.80957 15.9886 1.18274 15.526 0.720772C15.0633 0.258801 14.4361 -0.000468147 13.7823 6.34594e-07C13.1285 0.000469416 12.5017 0.260638 12.0397 0.723272C11.409 1.35403 10.8074 3.28711 10.4366 4.80609C10.4065 4.94513 10.411 5.08945 10.4498 5.22633C10.4886 5.3632 10.5605 5.48844 10.6591 5.59099ZM13.2204 1.90146C13.2938 1.82444 13.3818 1.76288 13.4793 1.72039C13.5768 1.6779 13.6818 1.65534 13.7881 1.65405C13.8945 1.65275 14 1.67274 14.0985 1.71284C14.197 1.75294 14.2865 1.81234 14.3617 1.88754C14.4369 1.96274 14.4963 2.05223 14.5364 2.15073C14.5765 2.24923 14.5965 2.35476 14.5952 2.46111C14.5939 2.56745 14.5713 2.67246 14.5289 2.76996C14.4864 2.86746 14.4248 2.95547 14.3478 3.02881C13.7521 3.37392 13.1117 3.63523 12.4447 3.80538C12.6138 3.13787 12.8749 2.4971 13.2204 1.90146Z" fill="#3C2A5C"/>
<path d="M9.55816 4.80271C9.18821 3.28874 8.58662 1.35482 7.95753 0.723231C7.49556 0.260818 6.86882 0.00086212 6.21518 0.000549599C5.56154 0.000237077 4.93455 0.259594 4.47214 0.721565C4.00973 1.18354 3.74977 1.81028 3.74946 2.46392C3.74915 3.11755 4.0085 3.74454 4.47047 4.20696C5.19372 4.93187 7.56592 5.56928 8.55329 5.81009C8.69218 5.84413 8.8375 5.84185 8.97526 5.80347C9.11301 5.76509 9.23857 5.6919 9.33986 5.59095C9.43826 5.48765 9.50967 5.36167 9.54775 5.22418C9.58583 5.08668 9.58941 4.94192 9.55816 4.80271ZM5.64949 3.02877C5.57547 2.9548 5.51674 2.86698 5.47666 2.77031C5.43657 2.67365 5.41592 2.57003 5.41589 2.46539C5.41585 2.36074 5.43642 2.25711 5.47643 2.16042C5.51644 2.06372 5.57511 1.97586 5.64907 1.90183C5.72304 1.82781 5.81087 1.76908 5.90753 1.729C6.0042 1.68892 6.10781 1.66827 6.21246 1.66823C6.4238 1.66815 6.62652 1.75203 6.77602 1.90142C7.1219 2.49688 7.383 3.1377 7.55175 3.80534C6.88468 3.63607 6.24444 3.3747 5.64949 3.02877Z" fill="#3C2A5C"/>
</g>
<defs>
<clipPath id="clip0_1279_1188">
<rect width="20" height="20" fill="white"/>
</clipPath>
</defs>
</svg>
