<svg width="20" height="20" viewBox="0 0 20 20" fill="none" xmlns="http://www.w3.org/2000/svg">
<path d="M7.65831 5.7464L7.46843 7.23943C7.42869 7.45494 7.45691 7.67291 7.55036 7.87079C7.72013 8.23032 8.0704 8.43977 8.43438 8.43977C8.57835 8.43977 8.72457 8.40696 8.86245 8.33771L10.1939 7.66935L11.562 8.34145C11.7343 8.4263 11.9268 8.45665 12.1187 8.42931C12.3781 8.39231 12.6081 8.25333 12.7662 8.03794C12.9242 7.82255 12.9915 7.55662 12.9556 7.28853L12.7504 5.77437L13.7612 4.67492C13.9131 4.52492 14.0124 4.33278 14.0487 4.11844C14.0937 3.85211 14.0356 3.58364 13.8848 3.36243C13.7341 3.14122 13.5089 2.9938 13.2515 2.94747L11.7924 2.68091L11.069 1.3087C11.069 1.30862 11.0691 1.30878 11.069 1.3087C10.9773 1.13487 10.8391 0.993543 10.6696 0.900263C10.4387 0.773311 10.1737 0.746631 9.92336 0.825185C9.67305 0.903739 9.46737 1.07815 9.34415 1.31639L8.64748 2.66501L7.18176 2.94587C6.98297 2.97825 6.80123 3.07146 6.65566 3.21583C6.46695 3.40302 6.36025 3.65481 6.35517 3.92481C6.35009 4.19481 6.44729 4.45067 6.62911 4.64559L7.65831 5.7464ZM7.18089 3.77891C7.2232 3.73692 7.26994 3.72223 7.30165 3.71731C7.30597 3.71665 7.31025 3.71591 7.31453 3.71508L8.96525 3.39876C9.07858 3.37704 9.17616 3.30329 9.23036 3.19837L10.0127 1.68389C10.0406 1.62994 10.0872 1.59041 10.144 1.5726C10.1653 1.56588 10.1872 1.56256 10.2089 1.56256C10.2448 1.56256 10.2805 1.57166 10.3131 1.58959C10.3516 1.61076 10.3829 1.64272 10.4036 1.68198L11.214 3.21927C11.269 3.32372 11.3672 3.39661 11.4807 3.41735L13.1204 3.71688C13.1793 3.72747 13.2307 3.7611 13.2651 3.81157C13.2995 3.86204 13.3128 3.92329 13.3025 3.98411C13.2918 4.04711 13.2599 4.08891 13.235 4.11286C13.2293 4.11828 13.2238 4.12391 13.2185 4.12969L12.0752 5.37331C11.9959 5.45956 11.959 5.57839 11.9749 5.69612L12.2053 7.39603C12.2134 7.45689 12.1981 7.51736 12.1621 7.56634C12.1262 7.61529 12.0739 7.64693 12.0149 7.65533C11.9704 7.66169 11.9266 7.65509 11.8881 7.63619L10.3551 6.88307C10.251 6.83193 10.1301 6.83248 10.0264 6.88451L8.53089 7.63521C8.41987 7.69103 8.28555 7.64322 8.2315 7.52869C8.20392 7.47029 8.20646 7.41638 8.21343 7.38142C8.21529 7.37213 8.2168 7.36279 8.21801 7.35338L8.4332 5.6614C8.4482 5.54355 8.41032 5.42507 8.33032 5.33949L7.17483 4.1036C7.13362 4.05938 7.11153 4.00125 7.11267 3.93989C7.11381 3.87864 7.13801 3.82141 7.18089 3.77891Z" fill="#3C2A5C"/>
<path d="M7.18089 3.77891C7.2232 3.73692 7.26994 3.72223 7.30165 3.71731C7.30597 3.71665 7.31025 3.71591 7.31453 3.71508L8.96525 3.39876C9.07858 3.37704 9.17616 3.30329 9.23036 3.19837L10.0127 1.68389C10.0406 1.62994 10.0872 1.59041 10.144 1.5726C10.1653 1.56588 10.1872 1.56256 10.2089 1.56256C10.2448 1.56256 10.2805 1.57166 10.3131 1.58959C10.3516 1.61076 10.3829 1.64272 10.4036 1.68198L11.214 3.21927C11.269 3.32372 11.3672 3.39661 11.4807 3.41735L13.1204 3.71688C13.1793 3.72747 13.2307 3.7611 13.2651 3.81157C13.2995 3.86204 13.3128 3.92329 13.3025 3.98411C13.2918 4.04711 13.2599 4.08891 13.235 4.11286C13.2293 4.11828 13.2238 4.12391 13.2185 4.12969L12.0752 5.37331C11.9959 5.45956 11.959 5.57839 11.9749 5.69612L12.2053 7.39603C12.2134 7.45689 12.1981 7.51736 12.1621 7.56634C12.1262 7.61529 12.0739 7.64693 12.0149 7.65533C11.9704 7.66169 11.9266 7.65509 11.8881 7.63619L10.3551 6.88307C10.251 6.83193 10.1301 6.83248 10.0264 6.88451L8.53089 7.63521C8.41987 7.69103 8.28555 7.64322 8.2315 7.52869C8.20392 7.47029 8.20646 7.41638 8.21343 7.38142C8.21529 7.37213 8.2168 7.36279 8.21801 7.35338L8.4332 5.6614C8.4482 5.54355 8.41032 5.42507 8.33032 5.33949L7.17483 4.1036C7.13362 4.05938 7.11153 4.00125 7.11267 3.93989C7.11381 3.87864 7.13801 3.82141 7.18089 3.77891Z" fill="#3C2A5C"/>
<path d="M4.28126 0.728975L5.7765 1.61921C5.83616 1.65476 5.90127 1.67163 5.96555 1.67163C6.09646 1.67163 6.22378 1.60155 6.29393 1.47624C6.39855 1.2894 6.33647 1.0505 6.15529 0.942647L4.66005 0.0524122C4.47891 -0.0554784 4.24721 0.00854502 4.14262 0.195381C4.038 0.382217 4.10008 0.621123 4.28126 0.728975Z" fill="#3C2A5C"/>
<path d="M3.18841 5.41209C3.20656 5.41209 3.22493 5.41073 3.24345 5.40799L4.95199 5.15163C5.159 5.12057 5.30241 4.92229 5.27229 4.70881C5.24214 4.49534 5.05002 4.34748 4.8429 4.3785L3.13436 4.63487C2.92735 4.66592 2.78394 4.8642 2.81405 5.07768C2.84152 5.27209 3.00337 5.41209 3.18841 5.41209Z" fill="#3C2A5C"/>
<path d="M5.78986 7.78889L4.56901 9.04787C4.4211 9.20041 4.4211 9.44776 4.56901 9.60033C4.64299 9.67662 4.73993 9.71475 4.83686 9.71475C4.93379 9.71475 5.03076 9.67662 5.1047 9.60033L6.32555 8.34135C6.47346 8.18881 6.47346 7.94147 6.32555 7.78889C6.17763 7.63631 5.93778 7.63635 5.78986 7.78889Z" fill="#3C2A5C"/>
<path d="M14.4515 1.67164C14.5157 1.67164 14.5809 1.65473 14.6405 1.61922L16.1358 0.728983C16.3169 0.621132 16.379 0.382225 16.2744 0.19539C16.1698 0.00851447 15.9381 -0.0554699 15.757 0.0524207L14.2617 0.942655C14.0806 1.05051 14.0185 1.28941 14.1231 1.47625C14.1932 1.60156 14.3206 1.67164 14.4515 1.67164Z" fill="#3C2A5C"/>
<path d="M15.1456 4.70871C15.1155 4.92219 15.2589 5.12047 15.4659 5.15152L17.1744 5.40789C17.1929 5.41066 17.2113 5.41199 17.2295 5.41199C17.4145 5.41199 17.5764 5.27199 17.6038 5.07754C17.6339 4.86406 17.4905 4.66578 17.2835 4.63473L15.575 4.37836C15.3681 4.34742 15.1757 4.49524 15.1456 4.70871Z" fill="#3C2A5C"/>
<path d="M14.0904 7.78896C13.9425 7.9415 13.9425 8.18885 14.0904 8.34143L15.3113 9.60041C15.3853 9.6767 15.4822 9.71482 15.5791 9.71482C15.6761 9.71482 15.773 9.6767 15.847 9.60041C15.9949 9.44787 15.9949 9.20053 15.847 9.04795L14.6261 7.78896C14.4782 7.63643 14.2384 7.63643 14.0904 7.78896Z" fill="#3C2A5C"/>
<path fill-rule="evenodd" clip-rule="evenodd" d="M13.2386 12.9688H17.4053C18.0319 12.9688 18.5417 13.4945 18.5417 14.1406V19.6094C18.5417 19.8251 18.3721 20 18.1629 20H2.25379C2.04458 20 1.875 19.8251 1.875 19.6094V12.5781C1.875 11.932 2.38477 11.4063 3.01136 11.4063H7.17803V11.0156C7.17803 10.3694 7.68781 9.84375 8.3144 9.84375H12.1023C12.7289 9.84375 13.2386 10.3694 13.2386 11.0156V12.9688ZM16.4593 15.7031C16.4593 15.057 15.951 14.5312 15.3264 14.5312C14.9951 14.5312 14.6814 14.6807 14.4657 14.9411C14.3299 15.1052 14.3487 15.3518 14.5078 15.4919C14.6669 15.632 14.906 15.6125 15.0419 15.4485C15.1134 15.3621 15.2171 15.3125 15.3264 15.3125C15.5333 15.3125 15.7017 15.4878 15.7017 15.7032C15.7017 15.8093 15.6614 15.9086 15.5884 15.9828C15.5076 16.0648 15.4667 16.1798 15.4769 16.2963C15.4871 16.4127 15.5474 16.5184 15.6411 16.5841C15.7971 16.6935 15.8902 16.8753 15.8902 17.0704C15.8902 17.3934 15.6373 17.6563 15.3264 17.6563C15.2017 17.6563 15.0836 17.6148 14.9848 17.5365C14.819 17.405 14.5812 17.437 14.4536 17.6079C14.326 17.7789 14.357 18.0241 14.5228 18.1557C14.7553 18.3401 15.0331 18.4376 15.3264 18.4376C16.055 18.4376 16.6478 17.8243 16.6478 17.0704C16.6478 16.7512 16.5405 16.4471 16.3504 16.2061C16.4217 16.0511 16.4593 15.8802 16.4593 15.7031ZM4.7506 16.0939H5.66337C5.87258 16.0939 6.04216 16.2688 6.04216 16.4845C6.04216 16.7003 5.87258 16.8751 5.66337 16.8751H4.14832C3.93912 16.8751 3.76953 16.7003 3.76953 16.4845C3.76953 15.8736 4.20958 15.5235 4.59783 15.2145L4.59787 15.2145C5.02212 14.8769 5.28007 14.643 5.28462 14.2421C5.28773 13.9703 5.12375 13.8051 4.95984 13.7619C4.86174 13.7362 4.67783 13.7303 4.54882 13.9812C4.45079 14.1718 4.22154 14.2444 4.03669 14.1433C3.85188 14.0422 3.7815 13.8057 3.87953 13.6151C4.13923 13.1103 4.63677 12.8708 5.14704 13.0049C5.6808 13.1453 6.04887 13.6578 6.04213 14.2513C6.03292 15.0593 5.49383 15.4883 5.0606 15.833C4.93859 15.9301 4.83405 16.0148 4.7506 16.0939ZM10.628 14.5312H10.5868V11.7969C10.5868 11.6573 10.5146 11.5284 10.3974 11.4586C10.2802 11.3888 10.1358 11.3888 10.0186 11.4586L9.59864 11.7086C9.41747 11.8165 9.35538 12.0554 9.46 12.2422C9.53743 12.3805 9.68455 12.4514 9.82921 12.4353V14.5312H9.78804C9.57883 14.5312 9.40925 14.7061 9.40925 14.9218C9.40925 15.1376 9.57883 15.3125 9.78804 15.3125H10.628C10.8372 15.3125 11.0068 15.1376 11.0068 14.9218C11.0068 14.7061 10.8372 14.5312 10.628 14.5312ZM7.17773 16.4845C7.17773 16.2688 7.34732 16.0938 7.55653 16.0938C7.76573 16.0938 7.93532 16.2685 7.93532 16.4842V16.4845C7.93532 16.7002 7.76573 16.8751 7.55653 16.8751C7.34732 16.8751 7.17773 16.7002 7.17773 16.4845Z" fill="#3C2A5C"/>
</svg>
