<svg width="20" height="20" viewBox="0 0 20 20" fill="none" xmlns="http://www.w3.org/2000/svg">
<path d="M2.99258 14.1594C2.53145 14.247 2.11942 14.5031 1.83667 14.8778C1.55392 15.2524 1.42067 15.7189 1.46284 16.1864C1.50502 16.6539 1.71961 17.089 2.06486 17.407C2.41011 17.725 2.86131 17.9032 3.33069 17.9069H16.655C16.9177 17.913 17.1786 17.8624 17.4199 17.7585C17.6612 17.6546 17.8772 17.4998 18.0532 17.3048C18.3584 16.9518 18.5242 16.4997 18.5196 16.0331C18.5417 15.588 18.3985 15.1505 18.1174 14.8046C17.8364 14.4587 17.4375 14.2289 16.9973 14.1594H2.99258Z" fill="#3C2A5C"/>
<path d="M16.8216 13.3266C16.9177 13.3268 17.011 13.2938 17.0855 13.2331C17.16 13.1723 17.2113 13.0877 17.2305 12.9935L18.2298 7.90528C18.665 7.87992 19.0777 7.70411 19.3976 7.40794C19.7174 7.11177 19.9243 6.71365 19.9829 6.28173C20.0415 5.84982 19.9482 5.41095 19.719 5.04024C19.4897 4.66953 19.1387 4.39004 18.7261 4.24959C18.3134 4.10914 17.8648 4.11647 17.457 4.27033C17.0492 4.42418 16.7075 4.715 16.4905 5.093C16.2734 5.471 16.1945 5.91268 16.2672 6.34245C16.3399 6.77222 16.5597 7.16336 16.889 7.44893L14.8696 9.7532C14.8311 9.79716 14.7837 9.83251 14.7306 9.85697C14.6775 9.88142 14.6199 9.89442 14.5615 9.89513C14.503 9.89584 14.4451 9.88423 14.3914 9.86107C14.3378 9.83791 14.2896 9.80371 14.25 9.7607L10.8698 6.07236C11.3592 5.8695 11.7631 5.50323 12.0128 5.03596C12.2624 4.56869 12.3424 4.02931 12.2389 3.50972C12.1355 2.99013 11.8552 2.52247 11.4456 2.1864C11.0361 1.85034 10.5227 1.66666 9.99287 1.66666C9.46309 1.66666 8.94969 1.85034 8.54014 2.1864C8.1306 2.52247 7.85023 2.99013 7.74681 3.50972C7.64339 4.02931 7.72332 4.56869 7.97297 5.03596C8.22262 5.50323 8.62656 5.8695 9.11597 6.07236L5.74574 9.74904C5.70593 9.79245 5.65736 9.82693 5.60324 9.85018C5.54912 9.87344 5.49068 9.88495 5.43179 9.88395C5.37298 9.88299 5.31504 9.86958 5.26178 9.8446C5.20853 9.81962 5.16117 9.78365 5.12283 9.73905L3.12918 7.42061C3.44976 7.12833 3.65872 6.73365 3.72025 6.30421C3.78177 5.87477 3.69204 5.4373 3.46642 5.06675C3.2408 4.69621 2.89334 4.41567 2.48358 4.27319C2.07382 4.13071 1.62726 4.13517 1.22043 4.2858C0.813591 4.43643 0.471803 4.72386 0.253629 5.09884C0.0354545 5.47381 -0.0455252 5.91299 0.0245656 6.34111C0.0946563 6.76924 0.311454 7.15966 0.637811 7.44549C0.964168 7.73132 1.37977 7.89475 1.8134 7.90778L2.77192 12.9877C2.78995 13.0829 2.84066 13.1689 2.91531 13.2308C2.98995 13.2927 3.08385 13.3266 3.18081 13.3266H16.8216Z" fill="#3C2A5C"/>
</svg>
